<mxfile host="app.diagrams.net" modified="2022-06-03T18:18:25.892Z" agent="5.0 (Windows)" etag="kwp6RyPQcnDUZMiMDjPu" version="19.0.0" type="github" pages="2">
  <diagram id="C5RBs43oDa-KdzZeNtuy" name="Class Diagram">
    <mxGraphModel dx="1100" dy="390" grid="0" gridSize="10" guides="1" tooltips="1" connect="1" arrows="1" fold="1" page="1" pageScale="1" pageWidth="827" pageHeight="1169" math="0" shadow="0">
      <root>
        <mxCell id="WIyWlLk6GJQsqaUBKTNV-0" />
        <mxCell id="WIyWlLk6GJQsqaUBKTNV-1" parent="WIyWlLk6GJQsqaUBKTNV-0" />
        <mxCell id="coV18CZ96dicYKJdgp45-4" value="User" style="swimlane;fontStyle=1;align=center;verticalAlign=top;childLayout=stackLayout;horizontal=1;startSize=26;horizontalStack=0;resizeParent=1;resizeParentMax=0;resizeLast=0;collapsible=1;marginBottom=0;strokeWidth=1;spacingTop=0;fontSize=12;strokeColor=#6c8ebf;fillColor=#dae8fc;" parent="WIyWlLk6GJQsqaUBKTNV-1" vertex="1">
          <mxGeometry x="653" y="21" width="160" height="277" as="geometry" />
        </mxCell>
        <mxCell id="coV18CZ96dicYKJdgp45-5" value=" userID &#xa; firstName &#xa; lastName &#xa; age &#xa; sex&#xa; email &#xa; address &#xa; role &#xa; phoneNumber&#xa; username &#xa; password &#xa; department &#xa; specialization&#xa;" style="text;strokeColor=#6C8EBF;fillColor=none;align=left;verticalAlign=top;spacingLeft=4;spacingRight=4;overflow=hidden;rotatable=0;points=[[0,0.5],[1,0.5]];portConstraint=eastwest;strokeWidth=1;spacingTop=0;fontSize=12;" parent="coV18CZ96dicYKJdgp45-4" vertex="1">
          <mxGeometry y="26" width="160" height="191" as="geometry" />
        </mxCell>
        <mxCell id="coV18CZ96dicYKJdgp45-7" value="  login() &#xa; getter() &#xa; setter() " style="text;strokeColor=#6C8EBF;fillColor=none;align=left;verticalAlign=top;spacingLeft=4;spacingRight=4;overflow=hidden;rotatable=0;points=[[0,0.5],[1,0.5]];portConstraint=eastwest;strokeWidth=1;spacingTop=0;fontSize=12;" parent="coV18CZ96dicYKJdgp45-4" vertex="1">
          <mxGeometry y="217" width="160" height="60" as="geometry" />
        </mxCell>
        <mxCell id="ezx2IVxBo0MTf1jBkaTU-21" value="Result" style="swimlane;fontStyle=1;align=center;verticalAlign=top;childLayout=stackLayout;horizontal=1;startSize=26;horizontalStack=0;resizeParent=1;resizeParentMax=0;resizeLast=0;collapsible=1;marginBottom=0;strokeWidth=1;spacingTop=0;fontSize=12;strokeColor=#6c8ebf;fillColor=#dae8fc;" parent="WIyWlLk6GJQsqaUBKTNV-1" vertex="1">
          <mxGeometry x="40" y="840" width="134" height="174" as="geometry" />
        </mxCell>
        <mxCell id="ezx2IVxBo0MTf1jBkaTU-22" value=" testType &#xa; finding &#xa; senderName&#xa; date" style="text;strokeColor=#6C8EBF;fillColor=none;align=left;verticalAlign=top;spacingLeft=4;spacingRight=4;overflow=hidden;rotatable=0;points=[[0,0.5],[1,0.5]];portConstraint=eastwest;strokeWidth=1;spacingTop=0;fontSize=12;" parent="ezx2IVxBo0MTf1jBkaTU-21" vertex="1">
          <mxGeometry y="26" width="134" height="101" as="geometry" />
        </mxCell>
        <mxCell id="ezx2IVxBo0MTf1jBkaTU-23" value=" getter()&#xa; setter()" style="text;strokeColor=#6C8EBF;fillColor=none;align=left;verticalAlign=top;spacingLeft=4;spacingRight=4;overflow=hidden;rotatable=0;points=[[0,0.5],[1,0.5]];portConstraint=eastwest;strokeWidth=1;spacingTop=0;fontSize=12;" parent="ezx2IVxBo0MTf1jBkaTU-21" vertex="1">
          <mxGeometry y="127" width="134" height="47" as="geometry" />
        </mxCell>
        <mxCell id="ezx2IVxBo0MTf1jBkaTU-25" value="Request" style="swimlane;fontStyle=1;align=center;verticalAlign=top;childLayout=stackLayout;horizontal=1;startSize=26;horizontalStack=0;resizeParent=1;resizeParentMax=0;resizeLast=0;collapsible=1;marginBottom=0;strokeWidth=1;spacingTop=0;fontSize=12;strokeColor=#6c8ebf;fillColor=#dae8fc;" parent="WIyWlLk6GJQsqaUBKTNV-1" vertex="1">
          <mxGeometry x="193" y="840" width="133" height="174" as="geometry" />
        </mxCell>
        <mxCell id="ezx2IVxBo0MTf1jBkaTU-26" value=" requestType &#xa; senderName  &#xa; requestCase &#xa; date " style="text;strokeColor=#6C8EBF;fillColor=none;align=left;verticalAlign=top;spacingLeft=4;spacingRight=4;overflow=hidden;rotatable=0;points=[[0,0.5],[1,0.5]];portConstraint=eastwest;strokeWidth=1;spacingTop=0;fontSize=12;" parent="ezx2IVxBo0MTf1jBkaTU-25" vertex="1">
          <mxGeometry y="26" width="133" height="101" as="geometry" />
        </mxCell>
        <mxCell id="ezx2IVxBo0MTf1jBkaTU-27" value=" getter() &#xa; setter() " style="text;strokeColor=#6C8EBF;fillColor=none;align=left;verticalAlign=top;spacingLeft=4;spacingRight=4;overflow=hidden;rotatable=0;points=[[0,0.5],[1,0.5]];portConstraint=eastwest;strokeWidth=1;spacingTop=0;fontSize=12;" parent="ezx2IVxBo0MTf1jBkaTU-25" vertex="1">
          <mxGeometry y="127" width="133" height="47" as="geometry" />
        </mxCell>
        <mxCell id="ezx2IVxBo0MTf1jBkaTU-33" value="Prescription" style="swimlane;fontStyle=1;align=center;verticalAlign=top;childLayout=stackLayout;horizontal=1;startSize=26;horizontalStack=0;resizeParent=1;resizeParentMax=0;resizeLast=0;collapsible=1;marginBottom=0;strokeWidth=1;spacingTop=0;fontSize=12;strokeColor=#6c8ebf;fillColor=#dae8fc;" parent="WIyWlLk6GJQsqaUBKTNV-1" vertex="1">
          <mxGeometry x="334" y="840" width="144" height="173" as="geometry" />
        </mxCell>
        <mxCell id="ezx2IVxBo0MTf1jBkaTU-34" value=" drugName &#xa; method &#xa; dose &#xa; presciberName &#xa; date &#xa;" style="text;strokeColor=#6C8EBF;fillColor=none;align=left;verticalAlign=top;spacingLeft=4;spacingRight=4;overflow=hidden;rotatable=0;points=[[0,0.5],[1,0.5]];portConstraint=eastwest;strokeWidth=1;spacingTop=0;fontSize=12;" parent="ezx2IVxBo0MTf1jBkaTU-33" vertex="1">
          <mxGeometry y="26" width="144" height="100" as="geometry" />
        </mxCell>
        <mxCell id="ezx2IVxBo0MTf1jBkaTU-35" value=" getter() &#xa; setter() " style="text;strokeColor=#6C8EBF;fillColor=none;align=left;verticalAlign=top;spacingLeft=4;spacingRight=4;overflow=hidden;rotatable=0;points=[[0,0.5],[1,0.5]];portConstraint=eastwest;strokeWidth=1;spacingTop=0;fontSize=12;" parent="ezx2IVxBo0MTf1jBkaTU-33" vertex="1">
          <mxGeometry y="126" width="144" height="47" as="geometry" />
        </mxCell>
        <mxCell id="ezx2IVxBo0MTf1jBkaTU-37" value="Report" style="swimlane;fontStyle=1;align=center;verticalAlign=top;childLayout=stackLayout;horizontal=1;startSize=26;horizontalStack=0;resizeParent=1;resizeParentMax=0;resizeLast=0;collapsible=1;marginBottom=0;strokeWidth=1;spacingTop=0;fontSize=12;strokeColor=#6c8ebf;fillColor=#dae8fc;" parent="WIyWlLk6GJQsqaUBKTNV-1" vertex="1">
          <mxGeometry x="632" y="840" width="120" height="158" as="geometry" />
        </mxCell>
        <mxCell id="ezx2IVxBo0MTf1jBkaTU-38" value=" reportID &#xa; reportType &#xa; date : " style="text;strokeColor=#6C8EBF;fillColor=none;align=left;verticalAlign=top;spacingLeft=4;spacingRight=4;overflow=hidden;rotatable=0;points=[[0,0.5],[1,0.5]];portConstraint=eastwest;strokeWidth=1;spacingTop=0;fontSize=12;" parent="ezx2IVxBo0MTf1jBkaTU-37" vertex="1">
          <mxGeometry y="26" width="120" height="71" as="geometry" />
        </mxCell>
        <mxCell id="ezx2IVxBo0MTf1jBkaTU-39" value=" getter() &#xa; setter() " style="text;strokeColor=#6C8EBF;fillColor=none;align=left;verticalAlign=top;spacingLeft=4;spacingRight=4;overflow=hidden;rotatable=0;points=[[0,0.5],[1,0.5]];portConstraint=eastwest;strokeWidth=1;spacingTop=0;fontSize=12;" parent="ezx2IVxBo0MTf1jBkaTU-37" vertex="1">
          <mxGeometry y="97" width="120" height="61" as="geometry" />
        </mxCell>
        <mxCell id="coV18CZ96dicYKJdgp45-50" value="Client" style="swimlane;fontStyle=1;align=center;verticalAlign=top;childLayout=stackLayout;horizontal=1;startSize=26;horizontalStack=0;resizeParent=1;resizeParentMax=0;resizeLast=0;collapsible=1;marginBottom=0;strokeWidth=1;spacingTop=0;fontSize=12;strokeColor=#6c8ebf;fillColor=#dae8fc;" parent="WIyWlLk6GJQsqaUBKTNV-1" vertex="1">
          <mxGeometry x="310" y="261" width="140" height="260" as="geometry" />
        </mxCell>
        <mxCell id="coV18CZ96dicYKJdgp45-51" value=" MRN &#xa; date&#xa; ANCReg.Number&#xa; facilityName&#xa; houseNumber&#xa; martialStatus&#xa; gravidity &#xa; parity&#xa; No.OfChildren &#xa; LMP &#xa; EDD&#xa; gestAge &#xa;" style="text;strokeColor=#6C8EBF;fillColor=none;align=left;verticalAlign=top;spacingLeft=4;spacingRight=4;overflow=hidden;rotatable=0;points=[[0,0.5],[1,0.5]];portConstraint=eastwest;strokeWidth=1;spacingTop=0;fontSize=12;" parent="coV18CZ96dicYKJdgp45-50" vertex="1">
          <mxGeometry y="26" width="140" height="178" as="geometry" />
        </mxCell>
        <mxCell id="coV18CZ96dicYKJdgp45-52" value=" login() &#xa; view() &#xa; sendFeedback() " style="text;strokeColor=#6C8EBF;fillColor=none;align=left;verticalAlign=top;spacingLeft=4;spacingRight=4;overflow=hidden;rotatable=0;points=[[0,0.5],[1,0.5]];portConstraint=eastwest;strokeWidth=1;spacingTop=0;fontSize=12;" parent="coV18CZ96dicYKJdgp45-50" vertex="1">
          <mxGeometry y="204" width="140" height="56" as="geometry" />
        </mxCell>
        <mxCell id="coV18CZ96dicYKJdgp45-55" value="ANCVisits" style="swimlane;fontStyle=1;align=center;verticalAlign=top;childLayout=stackLayout;horizontal=1;startSize=26;horizontalStack=0;resizeParent=1;resizeParentMax=0;resizeLast=0;collapsible=1;marginBottom=0;strokeWidth=1;spacingTop=0;fontSize=12;strokeColor=#6c8ebf;fillColor=#dae8fc;" parent="WIyWlLk6GJQsqaUBKTNV-1" vertex="1">
          <mxGeometry x="235" y="21" width="140" height="172" as="geometry" />
        </mxCell>
        <mxCell id="coV18CZ96dicYKJdgp45-56" value=" date&#xa; anemia&#xa; fetal-heartbeat&#xa; presentation &#xa; BP &#xa; blood-group&#xa; tuberculosis" style="text;strokeColor=#6C8EBF;fillColor=none;align=left;verticalAlign=top;spacingLeft=4;spacingRight=4;overflow=hidden;rotatable=0;points=[[0,0.5],[1,0.5]];portConstraint=eastwest;strokeWidth=1;spacingTop=0;fontSize=12;" parent="coV18CZ96dicYKJdgp45-55" vertex="1">
          <mxGeometry y="26" width="140" height="108" as="geometry" />
        </mxCell>
        <mxCell id="IT7af8er3wbHc-K179dS-0" value="getter()&#xa;setter()&#xa;" style="text;strokeColor=#6C8EBF;fillColor=none;align=left;verticalAlign=top;spacingLeft=4;spacingRight=4;overflow=hidden;rotatable=0;points=[[0,0.5],[1,0.5]];portConstraint=eastwest;strokeWidth=1;spacingTop=0;fontSize=12;" parent="coV18CZ96dicYKJdgp45-55" vertex="1">
          <mxGeometry y="134" width="140" height="38" as="geometry" />
        </mxCell>
        <mxCell id="coV18CZ96dicYKJdgp45-61" value="Delivery" style="swimlane;fontStyle=1;align=center;verticalAlign=top;childLayout=stackLayout;horizontal=1;startSize=26;horizontalStack=0;resizeParent=1;resizeParentMax=0;resizeLast=0;collapsible=1;marginBottom=0;strokeWidth=1;spacingTop=0;fontSize=12;strokeColor=#6c8ebf;fillColor=#dae8fc;" parent="WIyWlLk6GJQsqaUBKTNV-1" vertex="1">
          <mxGeometry x="40.99999999999997" y="409" width="141" height="174" as="geometry" />
        </mxCell>
        <mxCell id="coV18CZ96dicYKJdgp45-62" value=" date &#xa; anemia &#xa; fetal-heartbeat &#xa; presentation &#xa; urine-test &#xa; blood-group &#xa; tuberculosis &#xa;&#xa;" style="text;strokeColor=#6C8EBF;fillColor=none;align=left;verticalAlign=top;spacingLeft=4;spacingRight=4;overflow=hidden;rotatable=0;points=[[0,0.5],[1,0.5]];portConstraint=eastwest;strokeWidth=1;spacingTop=0;fontSize=12;" parent="coV18CZ96dicYKJdgp45-61" vertex="1">
          <mxGeometry y="26" width="141" height="110" as="geometry" />
        </mxCell>
        <mxCell id="IT7af8er3wbHc-K179dS-3" value="getter()&#xa;setter()&#xa;" style="text;strokeColor=#6C8EBF;fillColor=none;align=left;verticalAlign=top;spacingLeft=4;spacingRight=4;overflow=hidden;rotatable=0;points=[[0,0.5],[1,0.5]];portConstraint=eastwest;strokeWidth=1;spacingTop=0;fontSize=12;" parent="coV18CZ96dicYKJdgp45-61" vertex="1">
          <mxGeometry y="136" width="141" height="38" as="geometry" />
        </mxCell>
        <mxCell id="coV18CZ96dicYKJdgp45-65" value="PNCVisits" style="swimlane;fontStyle=1;align=center;verticalAlign=top;childLayout=stackLayout;horizontal=1;startSize=26;horizontalStack=0;resizeParent=1;resizeParentMax=0;resizeLast=0;collapsible=1;marginBottom=0;strokeWidth=1;spacingTop=0;fontSize=12;strokeColor=#6c8ebf;fillColor=#dae8fc;" parent="WIyWlLk6GJQsqaUBKTNV-1" vertex="1">
          <mxGeometry x="39.99999999999997" y="211" width="163" height="187" as="geometry" />
        </mxCell>
        <mxCell id="coV18CZ96dicYKJdgp45-66" value=" date &#xa; temperature&#xa; dribbling &#xa; breast&#xa; anemia&#xa; HIVtested&#xa; immunization &#xa; tetanusVaccination&#xa;" style="text;strokeColor=#6C8EBF;fillColor=none;align=left;verticalAlign=top;spacingLeft=4;spacingRight=4;overflow=hidden;rotatable=0;points=[[0,0.5],[1,0.5]];portConstraint=eastwest;strokeWidth=1;spacingTop=0;fontSize=12;" parent="coV18CZ96dicYKJdgp45-65" vertex="1">
          <mxGeometry y="26" width="163" height="123" as="geometry" />
        </mxCell>
        <mxCell id="IT7af8er3wbHc-K179dS-2" value="getter()&#xa;setter()&#xa;" style="text;strokeColor=#6C8EBF;fillColor=none;align=left;verticalAlign=top;spacingLeft=4;spacingRight=4;overflow=hidden;rotatable=0;points=[[0,0.5],[1,0.5]];portConstraint=eastwest;strokeWidth=1;spacingTop=0;fontSize=12;" parent="coV18CZ96dicYKJdgp45-65" vertex="1">
          <mxGeometry y="149" width="163" height="38" as="geometry" />
        </mxCell>
        <mxCell id="coV18CZ96dicYKJdgp45-77" value="NewBorn" style="swimlane;fontStyle=1;align=center;verticalAlign=top;childLayout=stackLayout;horizontal=1;startSize=26;horizontalStack=0;resizeParent=1;resizeParentMax=0;resizeLast=0;collapsible=1;marginBottom=0;strokeWidth=1;spacingTop=0;fontSize=12;strokeColor=#6c8ebf;fillColor=#dae8fc;" parent="WIyWlLk6GJQsqaUBKTNV-1" vertex="1">
          <mxGeometry x="39.999999999999986" y="16" width="143" height="185" as="geometry" />
        </mxCell>
        <mxCell id="coV18CZ96dicYKJdgp45-78" value=" ID &#xa; name &#xa; time &#xa; sex  &#xa; birthWeight &#xa; birrthLength &#xa; sephallic&#xa; BCGVacine" style="text;strokeColor=#6C8EBF;fillColor=none;align=left;verticalAlign=top;spacingLeft=4;spacingRight=4;overflow=hidden;rotatable=0;points=[[0,0.5],[1,0.5]];portConstraint=eastwest;strokeWidth=1;spacingTop=0;fontSize=12;" parent="coV18CZ96dicYKJdgp45-77" vertex="1">
          <mxGeometry y="26" width="143" height="121" as="geometry" />
        </mxCell>
        <mxCell id="Wn-eCLg_XqfVdrKsII8J-35" value="getter()&#xa;setter()&#xa;" style="text;strokeColor=#6C8EBF;fillColor=none;align=left;verticalAlign=top;spacingLeft=4;spacingRight=4;overflow=hidden;rotatable=0;points=[[0,0.5],[1,0.5]];portConstraint=eastwest;strokeWidth=1;spacingTop=0;fontSize=12;" parent="coV18CZ96dicYKJdgp45-77" vertex="1">
          <mxGeometry y="147" width="143" height="38" as="geometry" />
        </mxCell>
        <mxCell id="coV18CZ96dicYKJdgp45-9" value="Midwife" style="swimlane;fontStyle=1;align=center;verticalAlign=top;childLayout=stackLayout;horizontal=1;startSize=26;horizontalStack=0;resizeParent=1;resizeParentMax=0;resizeLast=0;collapsible=1;marginBottom=0;strokeWidth=1;spacingTop=0;fontSize=12;strokeColor=#6c8ebf;fillColor=#dae8fc;" parent="WIyWlLk6GJQsqaUBKTNV-1" vertex="1">
          <mxGeometry x="500" y="413" width="164.57" height="105" as="geometry" />
        </mxCell>
        <mxCell id="Wn-eCLg_XqfVdrKsII8J-39" value="" style="text;strokeColor=#6C8EBF;fillColor=none;align=left;verticalAlign=top;spacingLeft=4;spacingRight=4;overflow=hidden;rotatable=0;points=[[0,0.5],[1,0.5]];portConstraint=eastwest;strokeWidth=1;spacingTop=0;fontSize=12;" parent="coV18CZ96dicYKJdgp45-9" vertex="1">
          <mxGeometry y="26" width="164.57" height="10" as="geometry" />
        </mxCell>
        <mxCell id="coV18CZ96dicYKJdgp45-12" value=" addMaternalAttribute()&#xa; updateMaternalAttribute() &#xa; view() &#xa; search()&#xa;" style="text;strokeColor=#6C8EBF;fillColor=none;align=left;verticalAlign=top;spacingLeft=4;spacingRight=4;overflow=hidden;rotatable=0;points=[[0,0.5],[1,0.5]];portConstraint=eastwest;strokeWidth=1;spacingTop=0;fontSize=12;" parent="coV18CZ96dicYKJdgp45-9" vertex="1">
          <mxGeometry y="36" width="164.57" height="69" as="geometry" />
        </mxCell>
        <mxCell id="coV18CZ96dicYKJdgp45-16" value="Doctor" style="swimlane;fontStyle=1;align=center;verticalAlign=top;childLayout=stackLayout;horizontal=1;startSize=26;horizontalStack=0;resizeParent=1;resizeParentMax=0;resizeLast=0;collapsible=1;marginBottom=0;strokeWidth=1;spacingTop=0;fontSize=12;strokeColor=#6c8ebf;fillColor=#dae8fc;" parent="WIyWlLk6GJQsqaUBKTNV-1" vertex="1">
          <mxGeometry x="682" y="411" width="134.86" height="116" as="geometry" />
        </mxCell>
        <mxCell id="Wn-eCLg_XqfVdrKsII8J-40" value="" style="text;strokeColor=#6C8EBF;fillColor=none;align=left;verticalAlign=top;spacingLeft=4;spacingRight=4;overflow=hidden;rotatable=0;points=[[0,0.5],[1,0.5]];portConstraint=eastwest;strokeWidth=1;spacingTop=0;fontSize=12;" parent="coV18CZ96dicYKJdgp45-16" vertex="1">
          <mxGeometry y="26" width="134.86" height="10" as="geometry" />
        </mxCell>
        <mxCell id="coV18CZ96dicYKJdgp45-18" value=" sendRequest() &#xa; updateData() &#xa; view() &#xa; examineClient() &#xa; search() &#xa;" style="text;strokeColor=#6C8EBF;fillColor=none;align=left;verticalAlign=top;spacingLeft=4;spacingRight=4;overflow=hidden;rotatable=0;points=[[0,0.5],[1,0.5]];portConstraint=eastwest;strokeWidth=1;spacingTop=0;fontSize=12;" parent="coV18CZ96dicYKJdgp45-16" vertex="1">
          <mxGeometry y="36" width="134.86" height="80" as="geometry" />
        </mxCell>
        <mxCell id="Jc25OmqgVMnvs9-wTiUW-7" value="" style="endArrow=none;html=1;rounded=0;strokeWidth=1;fillColor=#dae8fc;strokeColor=#6c8ebf;exitX=0.071;exitY=-0.004;exitDx=0;exitDy=0;exitPerimeter=0;" parent="WIyWlLk6GJQsqaUBKTNV-1" source="coV18CZ96dicYKJdgp45-50" edge="1">
          <mxGeometry width="50" height="50" relative="1" as="geometry">
            <mxPoint x="356" y="263" as="sourcePoint" />
            <mxPoint x="320" y="192" as="targetPoint" />
          </mxGeometry>
        </mxCell>
        <mxCell id="Jc25OmqgVMnvs9-wTiUW-8" value="followup" style="edgeLabel;html=1;align=center;verticalAlign=middle;resizable=0;points=[];labelBackgroundColor=none;" parent="Jc25OmqgVMnvs9-wTiUW-7" vertex="1" connectable="0">
          <mxGeometry x="0.4265" y="-2" relative="1" as="geometry">
            <mxPoint x="-1" y="13" as="offset" />
          </mxGeometry>
        </mxCell>
        <mxCell id="Jc25OmqgVMnvs9-wTiUW-9" value="" style="endArrow=none;html=1;rounded=0;strokeWidth=1;entryX=1;entryY=0.78;entryDx=0;entryDy=0;entryPerimeter=0;fillColor=#dae8fc;strokeColor=#6c8ebf;" parent="WIyWlLk6GJQsqaUBKTNV-1" edge="1">
          <mxGeometry width="50" height="50" relative="1" as="geometry">
            <mxPoint x="310" y="278" as="sourcePoint" />
            <mxPoint x="183" y="159.94000000000005" as="targetPoint" />
            <Array as="points">
              <mxPoint x="230" y="278" />
              <mxPoint x="230" y="160" />
            </Array>
          </mxGeometry>
        </mxCell>
        <mxCell id="Jc25OmqgVMnvs9-wTiUW-10" value="has" style="edgeLabel;html=1;align=center;verticalAlign=middle;resizable=0;points=[];" parent="Jc25OmqgVMnvs9-wTiUW-9" vertex="1" connectable="0">
          <mxGeometry x="0.4265" y="-2" relative="1" as="geometry">
            <mxPoint x="11" y="57" as="offset" />
          </mxGeometry>
        </mxCell>
        <mxCell id="Jc25OmqgVMnvs9-wTiUW-11" value="" style="endArrow=none;html=1;rounded=0;strokeWidth=1;fillColor=#dae8fc;strokeColor=#6c8ebf;exitX=0.007;exitY=0.18;exitDx=0;exitDy=0;exitPerimeter=0;" parent="WIyWlLk6GJQsqaUBKTNV-1" edge="1">
          <mxGeometry width="50" height="50" relative="1" as="geometry">
            <mxPoint x="311.98" y="319.03999999999996" as="sourcePoint" />
            <mxPoint x="201" y="319" as="targetPoint" />
          </mxGeometry>
        </mxCell>
        <mxCell id="Jc25OmqgVMnvs9-wTiUW-12" value="followup" style="edgeLabel;html=1;align=center;verticalAlign=middle;resizable=0;points=[];" parent="Jc25OmqgVMnvs9-wTiUW-11" vertex="1" connectable="0">
          <mxGeometry x="0.4265" y="-2" relative="1" as="geometry">
            <mxPoint x="24" y="-8" as="offset" />
          </mxGeometry>
        </mxCell>
        <mxCell id="Jc25OmqgVMnvs9-wTiUW-21" value="" style="endArrow=none;html=1;rounded=0;strokeWidth=1;fillColor=#dae8fc;strokeColor=#6c8ebf;exitX=0.021;exitY=0.286;exitDx=0;exitDy=0;entryX=0.986;entryY=0.25;entryDx=0;entryDy=0;entryPerimeter=0;exitPerimeter=0;" parent="WIyWlLk6GJQsqaUBKTNV-1" edge="1">
          <mxGeometry width="50" height="50" relative="1" as="geometry">
            <mxPoint x="312.94000000000005" y="466.0160000000001" as="sourcePoint" />
            <mxPoint x="181.02600000000007" y="467" as="targetPoint" />
          </mxGeometry>
        </mxCell>
        <mxCell id="Jc25OmqgVMnvs9-wTiUW-22" value="gives" style="edgeLabel;html=1;align=center;verticalAlign=middle;resizable=0;points=[];" parent="Jc25OmqgVMnvs9-wTiUW-21" vertex="1" connectable="0">
          <mxGeometry x="0.4265" y="-2" relative="1" as="geometry">
            <mxPoint x="29" y="-8" as="offset" />
          </mxGeometry>
        </mxCell>
        <mxCell id="Jc25OmqgVMnvs9-wTiUW-41" style="edgeStyle=none;rounded=0;orthogonalLoop=1;jettySize=auto;html=1;fontSize=11;startArrow=none;startFill=0;endArrow=none;endFill=0;strokeWidth=1;fillColor=#f8cecc;strokeColor=#b85450;" parent="WIyWlLk6GJQsqaUBKTNV-1" edge="1">
          <mxGeometry relative="1" as="geometry">
            <mxPoint x="673" y="359" as="targetPoint" />
            <mxPoint x="673" y="600" as="sourcePoint" />
          </mxGeometry>
        </mxCell>
        <mxCell id="Jc25OmqgVMnvs9-wTiUW-42" value="" style="endArrow=none;html=1;rounded=0;fontSize=11;strokeWidth=1;fillColor=#f8cecc;strokeColor=#b85450;" parent="WIyWlLk6GJQsqaUBKTNV-1" edge="1">
          <mxGeometry width="50" height="50" relative="1" as="geometry">
            <mxPoint x="750" y="360" as="sourcePoint" />
            <mxPoint x="590" y="360" as="targetPoint" />
          </mxGeometry>
        </mxCell>
        <mxCell id="Jc25OmqgVMnvs9-wTiUW-43" style="edgeStyle=none;rounded=0;orthogonalLoop=1;jettySize=auto;html=1;fontSize=11;startArrow=none;startFill=0;endArrow=block;endFill=0;strokeWidth=1;fillColor=#f8cecc;strokeColor=#b85450;entryX=0.4;entryY=1.013;entryDx=0;entryDy=0;entryPerimeter=0;" parent="WIyWlLk6GJQsqaUBKTNV-1" edge="1">
          <mxGeometry relative="1" as="geometry">
            <mxPoint x="717" y="296.78" as="targetPoint" />
            <mxPoint x="717" y="362" as="sourcePoint" />
          </mxGeometry>
        </mxCell>
        <mxCell id="Jc25OmqgVMnvs9-wTiUW-44" style="edgeStyle=none;rounded=0;orthogonalLoop=1;jettySize=auto;html=1;fontSize=11;startArrow=none;startFill=0;endArrow=none;endFill=0;strokeWidth=1;fillColor=#f8cecc;strokeColor=#b85450;entryX=0.513;entryY=1.083;entryDx=0;entryDy=0;entryPerimeter=0;" parent="WIyWlLk6GJQsqaUBKTNV-1" edge="1">
          <mxGeometry relative="1" as="geometry">
            <mxPoint x="591.0799999999999" y="358.98" as="targetPoint" />
            <mxPoint x="591" y="414" as="sourcePoint" />
          </mxGeometry>
        </mxCell>
        <mxCell id="Jc25OmqgVMnvs9-wTiUW-45" style="edgeStyle=none;rounded=0;orthogonalLoop=1;jettySize=auto;html=1;fontSize=11;startArrow=none;startFill=0;endArrow=none;endFill=0;strokeWidth=1;fillColor=#f8cecc;strokeColor=#b85450;entryX=0.513;entryY=1.083;entryDx=0;entryDy=0;entryPerimeter=0;" parent="WIyWlLk6GJQsqaUBKTNV-1" edge="1">
          <mxGeometry relative="1" as="geometry">
            <mxPoint x="750.0799999999999" y="357.98" as="targetPoint" />
            <mxPoint x="750" y="413" as="sourcePoint" />
          </mxGeometry>
        </mxCell>
        <mxCell id="Jc25OmqgVMnvs9-wTiUW-46" value="Appointment" style="swimlane;fontStyle=1;align=center;verticalAlign=top;childLayout=stackLayout;horizontal=1;startSize=26;horizontalStack=0;resizeParent=1;resizeParentMax=0;resizeLast=0;collapsible=1;marginBottom=0;strokeWidth=1;spacingTop=0;fontSize=12;strokeColor=#6c8ebf;fillColor=#dae8fc;" parent="WIyWlLk6GJQsqaUBKTNV-1" vertex="1">
          <mxGeometry x="502" y="21" width="110" height="140" as="geometry" />
        </mxCell>
        <mxCell id="Jc25OmqgVMnvs9-wTiUW-47" value=" fullName &#xa; phoneNumber&#xa; email &#xa; date" style="text;strokeColor=#6C8EBF;fillColor=none;align=left;verticalAlign=top;spacingLeft=4;spacingRight=4;overflow=hidden;rotatable=0;points=[[0,0.5],[1,0.5]];portConstraint=eastwest;strokeWidth=1;spacingTop=0;fontSize=12;" parent="Jc25OmqgVMnvs9-wTiUW-46" vertex="1">
          <mxGeometry y="26" width="110" height="64" as="geometry" />
        </mxCell>
        <mxCell id="Jc25OmqgVMnvs9-wTiUW-48" value=" book() &#xa; getter()&#xa; setter()" style="text;strokeColor=#6C8EBF;fillColor=none;align=left;verticalAlign=top;spacingLeft=4;spacingRight=4;overflow=hidden;rotatable=0;points=[[0,0.5],[1,0.5]];portConstraint=eastwest;strokeWidth=1;spacingTop=0;fontSize=12;" parent="Jc25OmqgVMnvs9-wTiUW-46" vertex="1">
          <mxGeometry y="90" width="110" height="50" as="geometry" />
        </mxCell>
        <mxCell id="coV18CZ96dicYKJdgp45-20" value="Gynacology" style="swimlane;fontStyle=1;align=center;verticalAlign=top;childLayout=stackLayout;horizontal=1;startSize=26;horizontalStack=0;resizeParent=1;resizeParentMax=0;resizeLast=0;collapsible=1;marginBottom=0;strokeWidth=1;spacingTop=0;fontSize=12;strokeColor=#6c8ebf;fillColor=#dae8fc;" parent="WIyWlLk6GJQsqaUBKTNV-1" vertex="1">
          <mxGeometry x="630" y="640" width="130" height="121" as="geometry" />
        </mxCell>
        <mxCell id="Wn-eCLg_XqfVdrKsII8J-32" value="" style="text;strokeColor=#6C8EBF;fillColor=none;align=left;verticalAlign=top;spacingLeft=4;spacingRight=4;overflow=hidden;rotatable=0;points=[[0,0.5],[1,0.5]];portConstraint=eastwest;strokeWidth=1;spacingTop=0;fontSize=12;" parent="coV18CZ96dicYKJdgp45-20" vertex="1">
          <mxGeometry y="26" width="130" height="15" as="geometry" />
        </mxCell>
        <mxCell id="coV18CZ96dicYKJdgp45-22" value=" viewRequest() &#xa; performOpes() &#xa; search() " style="text;strokeColor=#6C8EBF;fillColor=none;align=left;verticalAlign=top;spacingLeft=4;spacingRight=4;overflow=hidden;rotatable=0;points=[[0,0.5],[1,0.5]];portConstraint=eastwest;strokeWidth=1;spacingTop=0;fontSize=12;" parent="coV18CZ96dicYKJdgp45-20" vertex="1">
          <mxGeometry y="41" width="130" height="80" as="geometry" />
        </mxCell>
        <mxCell id="coV18CZ96dicYKJdgp45-24" value="LabTechnician" style="swimlane;fontStyle=1;align=center;verticalAlign=top;childLayout=stackLayout;horizontal=1;startSize=26;horizontalStack=0;resizeParent=1;resizeParentMax=0;resizeLast=0;collapsible=1;marginBottom=0;strokeWidth=1;spacingTop=0;fontSize=12;strokeColor=#6c8ebf;fillColor=#dae8fc;" parent="WIyWlLk6GJQsqaUBKTNV-1" vertex="1">
          <mxGeometry x="191" y="640" width="122.67" height="121" as="geometry" />
        </mxCell>
        <mxCell id="Wn-eCLg_XqfVdrKsII8J-29" value="" style="text;strokeColor=#6C8EBF;fillColor=none;align=left;verticalAlign=top;spacingLeft=4;spacingRight=4;overflow=hidden;rotatable=0;points=[[0,0.5],[1,0.5]];portConstraint=eastwest;strokeWidth=1;spacingTop=0;fontSize=12;" parent="coV18CZ96dicYKJdgp45-24" vertex="1">
          <mxGeometry y="26" width="122.67" height="15" as="geometry" />
        </mxCell>
        <mxCell id="coV18CZ96dicYKJdgp45-26" value=" sendResult() &#xa; updateData() &#xa; view() &#xa; search() " style="text;strokeColor=#6C8EBF;fillColor=none;align=left;verticalAlign=top;spacingLeft=4;spacingRight=4;overflow=hidden;rotatable=0;points=[[0,0.5],[1,0.5]];portConstraint=eastwest;strokeWidth=1;spacingTop=0;fontSize=12;" parent="coV18CZ96dicYKJdgp45-24" vertex="1">
          <mxGeometry y="41" width="122.67" height="80" as="geometry" />
        </mxCell>
        <mxCell id="coV18CZ96dicYKJdgp45-35" value="Pharmacist " style="swimlane;fontStyle=1;align=center;verticalAlign=top;childLayout=stackLayout;horizontal=1;startSize=26;horizontalStack=0;resizeParent=1;resizeParentMax=0;resizeLast=0;collapsible=1;marginBottom=0;strokeWidth=1;spacingTop=0;fontSize=12;strokeColor=#6c8ebf;fillColor=#dae8fc;" parent="WIyWlLk6GJQsqaUBKTNV-1" vertex="1">
          <mxGeometry x="330" y="640" width="143.67" height="114" as="geometry" />
        </mxCell>
        <mxCell id="Wn-eCLg_XqfVdrKsII8J-30" value="" style="text;strokeColor=#6C8EBF;fillColor=none;align=left;verticalAlign=top;spacingLeft=4;spacingRight=4;overflow=hidden;rotatable=0;points=[[0,0.5],[1,0.5]];portConstraint=eastwest;strokeWidth=1;spacingTop=0;fontSize=12;" parent="coV18CZ96dicYKJdgp45-35" vertex="1">
          <mxGeometry y="26" width="143.67" height="15" as="geometry" />
        </mxCell>
        <mxCell id="coV18CZ96dicYKJdgp45-37" value=" viewPrescription &#xa; addDrugDetail() &#xa; search() &#xa;" style="text;strokeColor=#6C8EBF;fillColor=none;align=left;verticalAlign=top;spacingLeft=4;spacingRight=4;overflow=hidden;rotatable=0;points=[[0,0.5],[1,0.5]];portConstraint=eastwest;strokeWidth=1;spacingTop=0;fontSize=12;" parent="coV18CZ96dicYKJdgp45-35" vertex="1">
          <mxGeometry y="41" width="143.67" height="73" as="geometry" />
        </mxCell>
        <mxCell id="coV18CZ96dicYKJdgp45-39" value="HMISOfficer" style="swimlane;fontStyle=1;align=center;verticalAlign=top;childLayout=stackLayout;horizontal=1;startSize=26;horizontalStack=0;resizeParent=1;resizeParentMax=0;resizeLast=0;collapsible=1;marginBottom=0;strokeWidth=1;spacingTop=0;fontSize=12;strokeColor=#6c8ebf;fillColor=#dae8fc;" parent="WIyWlLk6GJQsqaUBKTNV-1" vertex="1">
          <mxGeometry x="483.33000000000004" y="639" width="133.67" height="99" as="geometry" />
        </mxCell>
        <mxCell id="Wn-eCLg_XqfVdrKsII8J-31" value="" style="text;strokeColor=#6C8EBF;fillColor=none;align=left;verticalAlign=top;spacingLeft=4;spacingRight=4;overflow=hidden;rotatable=0;points=[[0,0.5],[1,0.5]];portConstraint=eastwest;strokeWidth=1;spacingTop=0;fontSize=12;" parent="coV18CZ96dicYKJdgp45-39" vertex="1">
          <mxGeometry y="26" width="133.67" height="17" as="geometry" />
        </mxCell>
        <mxCell id="coV18CZ96dicYKJdgp45-41" value=" viewReport() &#xa; sendFeedback() " style="text;strokeColor=#6C8EBF;fillColor=none;align=left;verticalAlign=top;spacingLeft=4;spacingRight=4;overflow=hidden;rotatable=0;points=[[0,0.5],[1,0.5]];portConstraint=eastwest;strokeWidth=1;spacingTop=0;fontSize=12;" parent="coV18CZ96dicYKJdgp45-39" vertex="1">
          <mxGeometry y="43" width="133.67" height="56" as="geometry" />
        </mxCell>
        <mxCell id="coV18CZ96dicYKJdgp45-43" value="DataClerk" style="swimlane;fontStyle=1;align=center;verticalAlign=top;childLayout=stackLayout;horizontal=1;startSize=26;horizontalStack=0;resizeParent=1;resizeParentMax=0;resizeLast=0;collapsible=1;marginBottom=0;strokeWidth=1;spacingTop=0;fontSize=12;strokeColor=#6c8ebf;fillColor=#dae8fc;" parent="WIyWlLk6GJQsqaUBKTNV-1" vertex="1">
          <mxGeometry x="487" y="840" width="133.67" height="125" as="geometry" />
        </mxCell>
        <mxCell id="Wn-eCLg_XqfVdrKsII8J-33" value="" style="text;strokeColor=#6C8EBF;fillColor=none;align=left;verticalAlign=top;spacingLeft=4;spacingRight=4;overflow=hidden;rotatable=0;points=[[0,0.5],[1,0.5]];portConstraint=eastwest;strokeWidth=1;spacingTop=0;fontSize=12;" parent="coV18CZ96dicYKJdgp45-43" vertex="1">
          <mxGeometry y="26" width="133.67" height="19" as="geometry" />
        </mxCell>
        <mxCell id="coV18CZ96dicYKJdgp45-45" value=" generateReport()&#xa; sendReport() &#xa; updateReport() &#xa; view() &#xa; search() &#xa;" style="text;strokeColor=#6C8EBF;fillColor=none;align=left;verticalAlign=top;spacingLeft=4;spacingRight=4;overflow=hidden;rotatable=0;points=[[0,0.5],[1,0.5]];portConstraint=eastwest;strokeWidth=1;spacingTop=0;fontSize=12;" parent="coV18CZ96dicYKJdgp45-43" vertex="1">
          <mxGeometry y="45" width="133.67" height="80" as="geometry" />
        </mxCell>
        <mxCell id="Jc25OmqgVMnvs9-wTiUW-40" style="edgeStyle=none;rounded=0;orthogonalLoop=1;jettySize=auto;html=1;fontSize=11;startArrow=none;startFill=0;endArrow=none;endFill=0;strokeWidth=1;fillColor=#f8cecc;strokeColor=#b85450;exitX=0.75;exitY=0;exitDx=0;exitDy=0;" parent="WIyWlLk6GJQsqaUBKTNV-1" edge="1">
          <mxGeometry relative="1" as="geometry">
            <mxPoint x="572" y="600" as="targetPoint" />
            <mxPoint x="571.5825" y="639" as="sourcePoint" />
          </mxGeometry>
        </mxCell>
        <mxCell id="Jc25OmqgVMnvs9-wTiUW-49" value="Receptionist" style="swimlane;fontStyle=1;align=center;verticalAlign=top;childLayout=stackLayout;horizontal=1;startSize=26;horizontalStack=0;resizeParent=1;resizeParentMax=0;resizeLast=0;collapsible=1;marginBottom=0;strokeWidth=1;spacingTop=0;fontSize=12;strokeColor=#6c8ebf;fillColor=#dae8fc;" parent="WIyWlLk6GJQsqaUBKTNV-1" vertex="1">
          <mxGeometry x="46" y="640" width="133.78" height="110" as="geometry" />
        </mxCell>
        <mxCell id="Jc25OmqgVMnvs9-wTiUW-50" value="" style="text;strokeColor=#6C8EBF;fillColor=none;align=left;verticalAlign=top;spacingLeft=4;spacingRight=4;overflow=hidden;rotatable=0;points=[[0,0.5],[1,0.5]];portConstraint=eastwest;strokeWidth=1;spacingTop=0;fontSize=12;" parent="Jc25OmqgVMnvs9-wTiUW-49" vertex="1">
          <mxGeometry y="26" width="133.78" height="14" as="geometry" />
        </mxCell>
        <mxCell id="Jc25OmqgVMnvs9-wTiUW-51" value=" addClient()&#xa; updateData()&#xa; getter() &#xa; setter() " style="text;strokeColor=#6C8EBF;fillColor=none;align=left;verticalAlign=top;spacingLeft=4;spacingRight=4;overflow=hidden;rotatable=0;points=[[0,0.5],[1,0.5]];portConstraint=eastwest;strokeWidth=1;spacingTop=0;fontSize=12;" parent="Jc25OmqgVMnvs9-wTiUW-49" vertex="1">
          <mxGeometry y="40" width="133.78" height="70" as="geometry" />
        </mxCell>
        <mxCell id="Jc25OmqgVMnvs9-wTiUW-55" value="" style="endArrow=none;html=1;rounded=0;strokeWidth=1;entryX=0.001;entryY=0.009;entryDx=0;entryDy=0;exitX=1;exitY=0.903;exitDx=0;exitDy=0;entryPerimeter=0;fillColor=#dae8fc;strokeColor=#6c8ebf;exitPerimeter=0;" parent="WIyWlLk6GJQsqaUBKTNV-1" edge="1">
          <mxGeometry width="50" height="50" relative="1" as="geometry">
            <mxPoint x="450" y="477.73400000000004" as="sourcePoint" />
            <mxPoint x="500.16457142857143" y="477.72" as="targetPoint" />
          </mxGeometry>
        </mxCell>
        <mxCell id="Jc25OmqgVMnvs9-wTiUW-56" value="checkup" style="edgeLabel;html=1;align=center;verticalAlign=middle;resizable=0;points=[];" parent="Jc25OmqgVMnvs9-wTiUW-55" vertex="1" connectable="0">
          <mxGeometry x="0.4265" y="-2" relative="1" as="geometry">
            <mxPoint x="-12" y="-11" as="offset" />
          </mxGeometry>
        </mxCell>
        <mxCell id="Jc25OmqgVMnvs9-wTiUW-60" value="" style="endArrow=none;html=1;rounded=0;fontSize=11;strokeWidth=1;fillColor=#f8cecc;strokeColor=#b85450;" parent="WIyWlLk6GJQsqaUBKTNV-1" edge="1">
          <mxGeometry width="50" height="50" relative="1" as="geometry">
            <mxPoint x="715" y="600" as="sourcePoint" />
            <mxPoint x="153" y="600" as="targetPoint" />
          </mxGeometry>
        </mxCell>
        <mxCell id="Jc25OmqgVMnvs9-wTiUW-61" style="edgeStyle=none;rounded=0;orthogonalLoop=1;jettySize=auto;html=1;fontSize=11;startArrow=none;startFill=0;endArrow=none;endFill=0;strokeWidth=1;fillColor=#f8cecc;strokeColor=#b85450;exitX=0.75;exitY=0;exitDx=0;exitDy=0;" parent="WIyWlLk6GJQsqaUBKTNV-1" edge="1">
          <mxGeometry relative="1" as="geometry">
            <mxPoint x="411.9999999999998" y="600" as="targetPoint" />
            <mxPoint x="411.5825" y="639" as="sourcePoint" />
          </mxGeometry>
        </mxCell>
        <mxCell id="Jc25OmqgVMnvs9-wTiUW-62" style="edgeStyle=none;rounded=0;orthogonalLoop=1;jettySize=auto;html=1;fontSize=11;startArrow=none;startFill=0;endArrow=none;endFill=0;strokeWidth=1;fillColor=#f8cecc;strokeColor=#b85450;exitX=0.75;exitY=0;exitDx=0;exitDy=0;" parent="WIyWlLk6GJQsqaUBKTNV-1" edge="1">
          <mxGeometry relative="1" as="geometry">
            <mxPoint x="250.99999999999977" y="600" as="targetPoint" />
            <mxPoint x="250.58249999999998" y="639" as="sourcePoint" />
          </mxGeometry>
        </mxCell>
        <mxCell id="Jc25OmqgVMnvs9-wTiUW-63" style="edgeStyle=none;rounded=0;orthogonalLoop=1;jettySize=auto;html=1;fontSize=11;startArrow=none;startFill=0;endArrow=none;endFill=0;strokeWidth=1;fillColor=#f8cecc;strokeColor=#b85450;exitX=0.75;exitY=0;exitDx=0;exitDy=0;" parent="WIyWlLk6GJQsqaUBKTNV-1" edge="1">
          <mxGeometry relative="1" as="geometry">
            <mxPoint x="713.9999999999998" y="600" as="targetPoint" />
            <mxPoint x="713.5825" y="639" as="sourcePoint" />
          </mxGeometry>
        </mxCell>
        <mxCell id="E7zGCj6l4MF8pXXS8mJf-0" value="" style="endArrow=none;html=1;rounded=0;strokeWidth=1;fillColor=#dae8fc;strokeColor=#6c8ebf;" parent="WIyWlLk6GJQsqaUBKTNV-1" edge="1">
          <mxGeometry width="50" height="50" relative="1" as="geometry">
            <mxPoint x="449" y="320" as="sourcePoint" />
            <mxPoint x="503" y="151" as="targetPoint" />
            <Array as="points">
              <mxPoint x="489" y="320" />
              <mxPoint x="489" y="151" />
            </Array>
          </mxGeometry>
        </mxCell>
        <mxCell id="E7zGCj6l4MF8pXXS8mJf-1" value="book" style="edgeLabel;html=1;align=center;verticalAlign=middle;resizable=0;points=[];labelBackgroundColor=none;" parent="E7zGCj6l4MF8pXXS8mJf-0" vertex="1" connectable="0">
          <mxGeometry x="0.4265" y="-2" relative="1" as="geometry">
            <mxPoint x="-3" y="7" as="offset" />
          </mxGeometry>
        </mxCell>
        <mxCell id="E7zGCj6l4MF8pXXS8mJf-4" value="" style="endArrow=none;html=1;rounded=0;strokeWidth=1;exitX=0.25;exitY=0;exitDx=0;exitDy=0;fillColor=#dae8fc;strokeColor=#6c8ebf;entryX=0.091;entryY=1.024;entryDx=0;entryDy=0;entryPerimeter=0;" parent="WIyWlLk6GJQsqaUBKTNV-1" target="Jc25OmqgVMnvs9-wTiUW-48" edge="1">
          <mxGeometry width="50" height="50" relative="1" as="geometry">
            <mxPoint x="512.1428571428571" y="411" as="sourcePoint" />
            <mxPoint x="512.01" y="175.995" as="targetPoint" />
          </mxGeometry>
        </mxCell>
        <mxCell id="E7zGCj6l4MF8pXXS8mJf-5" value="set" style="edgeLabel;html=1;align=center;verticalAlign=middle;resizable=0;points=[];labelBackgroundColor=none;" parent="E7zGCj6l4MF8pXXS8mJf-4" vertex="1" connectable="0">
          <mxGeometry x="0.4265" y="-2" relative="1" as="geometry">
            <mxPoint x="-1" y="32" as="offset" />
          </mxGeometry>
        </mxCell>
        <mxCell id="E7zGCj6l4MF8pXXS8mJf-8" value="" style="endArrow=none;html=1;rounded=0;strokeWidth=1;entryX=0.5;entryY=0;entryDx=0;entryDy=0;fillColor=#dae8fc;strokeColor=#6c8ebf;exitX=0;exitY=0.5;exitDx=0;exitDy=0;" parent="WIyWlLk6GJQsqaUBKTNV-1" source="coV18CZ96dicYKJdgp45-52" target="Jc25OmqgVMnvs9-wTiUW-49" edge="1">
          <mxGeometry width="50" height="50" relative="1" as="geometry">
            <mxPoint x="377" y="523" as="sourcePoint" />
            <mxPoint x="213" y="191.94000000000005" as="targetPoint" />
            <Array as="points">
              <mxPoint x="261" y="493" />
              <mxPoint x="261" y="594" />
              <mxPoint x="113" y="594" />
            </Array>
          </mxGeometry>
        </mxCell>
        <mxCell id="E7zGCj6l4MF8pXXS8mJf-9" value="register" style="edgeLabel;html=1;align=center;verticalAlign=middle;resizable=0;points=[];" parent="E7zGCj6l4MF8pXXS8mJf-8" vertex="1" connectable="0">
          <mxGeometry x="0.4265" y="-2" relative="1" as="geometry">
            <mxPoint x="65" y="-10" as="offset" />
          </mxGeometry>
        </mxCell>
        <mxCell id="E7zGCj6l4MF8pXXS8mJf-12" style="edgeStyle=none;rounded=0;orthogonalLoop=1;jettySize=auto;html=1;fontSize=11;startArrow=none;startFill=0;endArrow=none;endFill=0;strokeWidth=1;fillColor=#f8cecc;strokeColor=#b85450;exitX=0.75;exitY=0;exitDx=0;exitDy=0;" parent="WIyWlLk6GJQsqaUBKTNV-1" edge="1">
          <mxGeometry relative="1" as="geometry">
            <mxPoint x="153.99999999999977" y="600" as="targetPoint" />
            <mxPoint x="153.58249999999998" y="639" as="sourcePoint" />
          </mxGeometry>
        </mxCell>
        <mxCell id="E7zGCj6l4MF8pXXS8mJf-13" value="" style="endArrow=none;html=1;rounded=0;strokeWidth=1;fillColor=#dae8fc;strokeColor=#6c8ebf;entryX=0.579;entryY=0.009;entryDx=0;entryDy=0;entryPerimeter=0;" parent="WIyWlLk6GJQsqaUBKTNV-1" edge="1">
          <mxGeometry width="50" height="50" relative="1" as="geometry">
            <mxPoint x="310" y="503" as="sourcePoint" />
            <mxPoint x="271.02593" y="641.0259999999998" as="targetPoint" />
            <Array as="points">
              <mxPoint x="271" y="503" />
              <mxPoint x="271" y="597" />
            </Array>
          </mxGeometry>
        </mxCell>
        <mxCell id="E7zGCj6l4MF8pXXS8mJf-14" value="diagnose" style="edgeLabel;html=1;align=center;verticalAlign=middle;resizable=0;points=[];" parent="E7zGCj6l4MF8pXXS8mJf-13" vertex="1" connectable="0">
          <mxGeometry x="0.4265" y="-2" relative="1" as="geometry">
            <mxPoint x="27" y="-10" as="offset" />
          </mxGeometry>
        </mxCell>
        <mxCell id="E7zGCj6l4MF8pXXS8mJf-21" value="" style="endArrow=none;html=1;rounded=0;strokeWidth=1;fillColor=#dae8fc;strokeColor=#6c8ebf;entryX=0.5;entryY=0;entryDx=0;entryDy=0;" parent="WIyWlLk6GJQsqaUBKTNV-1" edge="1">
          <mxGeometry width="50" height="50" relative="1" as="geometry">
            <mxPoint x="694" y="842" as="sourcePoint" />
            <mxPoint x="595.835" y="840" as="targetPoint" />
            <Array as="points">
              <mxPoint x="694" y="825" />
              <mxPoint x="596" y="825" />
            </Array>
          </mxGeometry>
        </mxCell>
        <mxCell id="E7zGCj6l4MF8pXXS8mJf-22" value="generate" style="edgeLabel;html=1;align=center;verticalAlign=middle;resizable=0;points=[];" parent="E7zGCj6l4MF8pXXS8mJf-21" vertex="1" connectable="0">
          <mxGeometry x="0.4265" y="-2" relative="1" as="geometry">
            <mxPoint x="29" y="-7" as="offset" />
          </mxGeometry>
        </mxCell>
        <mxCell id="E7zGCj6l4MF8pXXS8mJf-25" value="" style="endArrow=none;html=1;rounded=0;strokeWidth=1;fillColor=#dae8fc;strokeColor=#6c8ebf;entryX=0.5;entryY=0;entryDx=0;entryDy=0;" parent="WIyWlLk6GJQsqaUBKTNV-1" edge="1">
          <mxGeometry width="50" height="50" relative="1" as="geometry">
            <mxPoint x="381" y="753" as="sourcePoint" />
            <mxPoint x="381" y="841" as="targetPoint" />
          </mxGeometry>
        </mxCell>
        <mxCell id="E7zGCj6l4MF8pXXS8mJf-26" value="view" style="edgeLabel;html=1;align=center;verticalAlign=middle;resizable=0;points=[];" parent="E7zGCj6l4MF8pXXS8mJf-25" vertex="1" connectable="0">
          <mxGeometry x="0.4265" y="-2" relative="1" as="geometry">
            <mxPoint x="16" y="-30" as="offset" />
          </mxGeometry>
        </mxCell>
        <mxCell id="E7zGCj6l4MF8pXXS8mJf-29" value="" style="endArrow=none;html=1;rounded=0;strokeWidth=1;fillColor=#dae8fc;strokeColor=#6c8ebf;entryX=0.748;entryY=1.004;entryDx=0;entryDy=0;exitX=0.853;exitY=1.013;exitDx=0;exitDy=0;exitPerimeter=0;entryPerimeter=0;" parent="WIyWlLk6GJQsqaUBKTNV-1" target="ezx2IVxBo0MTf1jBkaTU-35" edge="1">
          <mxGeometry width="50" height="50" relative="1" as="geometry">
            <mxPoint x="778.03558" y="527.0400000000001" as="sourcePoint" />
            <mxPoint x="441.144" y="1024.256" as="targetPoint" />
            <Array as="points">
              <mxPoint x="778" y="1033" />
              <mxPoint x="441" y="1033" />
            </Array>
          </mxGeometry>
        </mxCell>
        <mxCell id="E7zGCj6l4MF8pXXS8mJf-30" value="prescribe" style="edgeLabel;html=1;align=center;verticalAlign=middle;resizable=0;points=[];" parent="E7zGCj6l4MF8pXXS8mJf-29" vertex="1" connectable="0">
          <mxGeometry x="0.4265" y="-2" relative="1" as="geometry">
            <mxPoint x="-120" y="-8" as="offset" />
          </mxGeometry>
        </mxCell>
        <mxCell id="E7zGCj6l4MF8pXXS8mJf-33" value="" style="endArrow=none;html=1;rounded=0;strokeWidth=1;fillColor=#dae8fc;strokeColor=#6c8ebf;entryX=0.5;entryY=0;entryDx=0;entryDy=0;" parent="WIyWlLk6GJQsqaUBKTNV-1" edge="1">
          <mxGeometry width="50" height="50" relative="1" as="geometry">
            <mxPoint x="548" y="738" as="sourcePoint" />
            <mxPoint x="706.5" y="840" as="targetPoint" />
            <Array as="points">
              <mxPoint x="548" y="777" />
              <mxPoint x="708" y="777" />
            </Array>
          </mxGeometry>
        </mxCell>
        <mxCell id="E7zGCj6l4MF8pXXS8mJf-34" value="view" style="edgeLabel;html=1;align=center;verticalAlign=middle;resizable=0;points=[];" parent="E7zGCj6l4MF8pXXS8mJf-33" vertex="1" connectable="0">
          <mxGeometry x="0.4265" y="-2" relative="1" as="geometry">
            <mxPoint x="-109" y="-12" as="offset" />
          </mxGeometry>
        </mxCell>
        <mxCell id="E7zGCj6l4MF8pXXS8mJf-37" value="" style="endArrow=none;html=1;rounded=0;strokeWidth=1;fillColor=#dae8fc;strokeColor=#6c8ebf;exitX=0.889;exitY=0.987;exitDx=0;exitDy=0;exitPerimeter=0;entryX=0.406;entryY=1.004;entryDx=0;entryDy=0;entryPerimeter=0;" parent="WIyWlLk6GJQsqaUBKTNV-1" edge="1">
          <mxGeometry width="50" height="50" relative="1" as="geometry">
            <mxPoint x="787.8905400000003" y="525.9599999999999" as="sourcePoint" />
            <mxPoint x="240.99800000000005" y="1014.1880000000001" as="targetPoint" />
            <Array as="points">
              <mxPoint x="788" y="1049" />
              <mxPoint x="241" y="1049" />
            </Array>
          </mxGeometry>
        </mxCell>
        <mxCell id="E7zGCj6l4MF8pXXS8mJf-38" value="send" style="edgeLabel;html=1;align=center;verticalAlign=middle;resizable=0;points=[];" parent="E7zGCj6l4MF8pXXS8mJf-37" vertex="1" connectable="0">
          <mxGeometry x="0.4265" y="-2" relative="1" as="geometry">
            <mxPoint x="23" y="9" as="offset" />
          </mxGeometry>
        </mxCell>
        <mxCell id="E7zGCj6l4MF8pXXS8mJf-41" value="" style="endArrow=none;html=1;rounded=0;strokeWidth=1;fillColor=#dae8fc;strokeColor=#6c8ebf;entryX=0.5;entryY=0;entryDx=0;entryDy=0;" parent="WIyWlLk6GJQsqaUBKTNV-1" edge="1">
          <mxGeometry width="50" height="50" relative="1" as="geometry">
            <mxPoint x="271" y="760" as="sourcePoint" />
            <mxPoint x="271" y="841" as="targetPoint" />
          </mxGeometry>
        </mxCell>
        <mxCell id="E7zGCj6l4MF8pXXS8mJf-42" value="view" style="edgeLabel;html=1;align=center;verticalAlign=middle;resizable=0;points=[];" parent="E7zGCj6l4MF8pXXS8mJf-41" vertex="1" connectable="0">
          <mxGeometry x="0.4265" y="-2" relative="1" as="geometry">
            <mxPoint x="-14" y="-7" as="offset" />
          </mxGeometry>
        </mxCell>
        <mxCell id="E7zGCj6l4MF8pXXS8mJf-45" value="" style="endArrow=none;html=1;rounded=0;strokeWidth=1;fillColor=#dae8fc;strokeColor=#6c8ebf;entryX=0.5;entryY=0;entryDx=0;entryDy=0;exitX=0.001;exitY=0.982;exitDx=0;exitDy=0;exitPerimeter=0;" parent="WIyWlLk6GJQsqaUBKTNV-1" source="coV18CZ96dicYKJdgp45-26" target="ezx2IVxBo0MTf1jBkaTU-21" edge="1">
          <mxGeometry width="50" height="50" relative="1" as="geometry">
            <mxPoint x="188" y="760" as="sourcePoint" />
            <mxPoint x="401" y="861" as="targetPoint" />
            <Array as="points">
              <mxPoint x="108" y="759" />
            </Array>
          </mxGeometry>
        </mxCell>
        <mxCell id="E7zGCj6l4MF8pXXS8mJf-46" value="send" style="edgeLabel;html=1;align=center;verticalAlign=middle;resizable=0;points=[];" parent="E7zGCj6l4MF8pXXS8mJf-45" vertex="1" connectable="0">
          <mxGeometry x="0.4265" y="-2" relative="1" as="geometry">
            <mxPoint x="-13" as="offset" />
          </mxGeometry>
        </mxCell>
        <mxCell id="E7zGCj6l4MF8pXXS8mJf-49" value="" style="endArrow=none;html=1;rounded=0;strokeWidth=1;fillColor=#dae8fc;strokeColor=#6c8ebf;entryX=0.821;entryY=0.002;entryDx=0;entryDy=0;entryPerimeter=0;exitX=0.5;exitY=1;exitDx=0;exitDy=0;" parent="WIyWlLk6GJQsqaUBKTNV-1" source="coV18CZ96dicYKJdgp45-20" edge="1">
          <mxGeometry width="50" height="50" relative="1" as="geometry">
            <mxPoint x="694" y="754" as="sourcePoint" />
            <mxPoint x="311.1930000000002" y="839.348" as="targetPoint" />
            <Array as="points">
              <mxPoint x="695" y="810" />
              <mxPoint x="311" y="810" />
            </Array>
          </mxGeometry>
        </mxCell>
        <mxCell id="E7zGCj6l4MF8pXXS8mJf-50" value="view" style="edgeLabel;html=1;align=center;verticalAlign=middle;resizable=0;points=[];" parent="E7zGCj6l4MF8pXXS8mJf-49" vertex="1" connectable="0">
          <mxGeometry x="0.4265" y="-2" relative="1" as="geometry">
            <mxPoint x="73" y="10" as="offset" />
          </mxGeometry>
        </mxCell>
        <mxCell id="E7zGCj6l4MF8pXXS8mJf-53" value="" style="endArrow=none;html=1;rounded=0;strokeWidth=1;fillColor=#dae8fc;strokeColor=#6c8ebf;exitX=0.889;exitY=0.987;exitDx=0;exitDy=0;exitPerimeter=0;" parent="WIyWlLk6GJQsqaUBKTNV-1" edge="1">
          <mxGeometry width="50" height="50" relative="1" as="geometry">
            <mxPoint x="801.8905400000003" y="525.9599999999999" as="sourcePoint" />
            <mxPoint x="83" y="1014" as="targetPoint" />
            <Array as="points">
              <mxPoint x="802" y="1065" />
              <mxPoint x="83" y="1060" />
            </Array>
          </mxGeometry>
        </mxCell>
        <mxCell id="E7zGCj6l4MF8pXXS8mJf-54" value="view" style="edgeLabel;html=1;align=center;verticalAlign=middle;resizable=0;points=[];" parent="E7zGCj6l4MF8pXXS8mJf-53" vertex="1" connectable="0">
          <mxGeometry x="0.4265" y="-2" relative="1" as="geometry">
            <mxPoint x="22" y="10" as="offset" />
          </mxGeometry>
        </mxCell>
        <mxCell id="E7zGCj6l4MF8pXXS8mJf-57" value="" style="endArrow=none;html=1;rounded=0;strokeWidth=1;fillColor=#dae8fc;strokeColor=#6c8ebf;exitX=0.521;exitY=1.004;exitDx=0;exitDy=0;exitPerimeter=0;" parent="WIyWlLk6GJQsqaUBKTNV-1" edge="1">
          <mxGeometry width="50" height="50" relative="1" as="geometry">
            <mxPoint x="752.2620599999998" y="527.3199999999999" as="sourcePoint" />
            <mxPoint x="395" y="520" as="targetPoint" />
            <Array as="points">
              <mxPoint x="752" y="577" />
              <mxPoint x="395" y="577" />
            </Array>
          </mxGeometry>
        </mxCell>
        <mxCell id="E7zGCj6l4MF8pXXS8mJf-58" value="examine " style="edgeLabel;html=1;align=center;verticalAlign=middle;resizable=0;points=[];" parent="E7zGCj6l4MF8pXXS8mJf-57" vertex="1" connectable="0">
          <mxGeometry x="0.4265" y="-2" relative="1" as="geometry">
            <mxPoint x="92" y="-7" as="offset" />
          </mxGeometry>
        </mxCell>
        <mxCell id="E7zGCj6l4MF8pXXS8mJf-61" value="" style="endArrow=none;html=1;rounded=0;strokeWidth=1;fillColor=#dae8fc;strokeColor=#6c8ebf;entryX=1;entryY=0.822;entryDx=0;entryDy=0;entryPerimeter=0;exitX=0.125;exitY=1.009;exitDx=0;exitDy=0;exitPerimeter=0;" parent="WIyWlLk6GJQsqaUBKTNV-1" source="coV18CZ96dicYKJdgp45-12" edge="1">
          <mxGeometry width="50" height="50" relative="1" as="geometry">
            <mxPoint x="519.9131428571429" y="528.24" as="sourcePoint" />
            <mxPoint x="203" y="346.43600000000004" as="targetPoint" />
            <Array as="points">
              <mxPoint x="520" y="541" />
              <mxPoint x="220" y="541" />
              <mxPoint x="220" y="346" />
            </Array>
          </mxGeometry>
        </mxCell>
        <mxCell id="E7zGCj6l4MF8pXXS8mJf-62" value="perform" style="edgeLabel;html=1;align=center;verticalAlign=middle;resizable=0;points=[];" parent="E7zGCj6l4MF8pXXS8mJf-61" vertex="1" connectable="0">
          <mxGeometry x="0.4265" y="-2" relative="1" as="geometry">
            <mxPoint x="19" y="-90" as="offset" />
          </mxGeometry>
        </mxCell>
        <mxCell id="E7zGCj6l4MF8pXXS8mJf-69" value="" style="endArrow=none;html=1;rounded=0;strokeWidth=1;fillColor=#dae8fc;strokeColor=#6c8ebf;entryX=0.999;entryY=0.882;entryDx=0;entryDy=0;entryPerimeter=0;exitX=0.221;exitY=0.995;exitDx=0;exitDy=0;exitPerimeter=0;" parent="WIyWlLk6GJQsqaUBKTNV-1" source="coV18CZ96dicYKJdgp45-12" edge="1">
          <mxGeometry width="50" height="50" relative="1" as="geometry">
            <mxPoint x="537.0285714285715" y="529.0000000000002" as="sourcePoint" />
            <mxPoint x="181.85900000000015" y="562.008" as="targetPoint" />
            <Array as="points">
              <mxPoint x="537" y="562" />
            </Array>
          </mxGeometry>
        </mxCell>
        <mxCell id="E7zGCj6l4MF8pXXS8mJf-70" value="perform" style="edgeLabel;html=1;align=center;verticalAlign=middle;resizable=0;points=[];" parent="E7zGCj6l4MF8pXXS8mJf-69" vertex="1" connectable="0">
          <mxGeometry x="0.4265" y="-2" relative="1" as="geometry">
            <mxPoint x="60" y="-9" as="offset" />
          </mxGeometry>
        </mxCell>
        <mxCell id="E7zGCj6l4MF8pXXS8mJf-73" value="" style="endArrow=none;html=1;rounded=0;strokeWidth=1;fillColor=#dae8fc;strokeColor=#6c8ebf;" parent="WIyWlLk6GJQsqaUBKTNV-1" edge="1">
          <mxGeometry width="50" height="50" relative="1" as="geometry">
            <mxPoint x="499" y="446" as="sourcePoint" />
            <mxPoint x="368" y="194" as="targetPoint" />
            <Array as="points">
              <mxPoint x="459" y="446" />
              <mxPoint x="459" y="235" />
              <mxPoint x="368" y="235" />
            </Array>
          </mxGeometry>
        </mxCell>
        <mxCell id="E7zGCj6l4MF8pXXS8mJf-74" value="perform" style="edgeLabel;html=1;align=center;verticalAlign=middle;resizable=0;points=[];" parent="E7zGCj6l4MF8pXXS8mJf-73" vertex="1" connectable="0">
          <mxGeometry x="0.4265" y="-2" relative="1" as="geometry">
            <mxPoint x="-5" y="10" as="offset" />
          </mxGeometry>
        </mxCell>
        <mxCell id="E7zGCj6l4MF8pXXS8mJf-77" value="" style="endArrow=none;html=1;rounded=0;strokeWidth=1;fillColor=#dae8fc;strokeColor=#6c8ebf;entryX=0.75;entryY=0;entryDx=0;entryDy=0;exitX=0.143;exitY=0.982;exitDx=0;exitDy=0;exitPerimeter=0;" parent="WIyWlLk6GJQsqaUBKTNV-1" edge="1">
          <mxGeometry width="50" height="50" relative="1" as="geometry">
            <mxPoint x="323.02" y="519.992" as="sourcePoint" />
            <mxPoint x="133.5" y="840" as="targetPoint" />
            <Array as="points">
              <mxPoint x="323" y="630" />
              <mxPoint x="323" y="790" />
              <mxPoint x="134" y="790" />
            </Array>
          </mxGeometry>
        </mxCell>
        <mxCell id="E7zGCj6l4MF8pXXS8mJf-78" value="has" style="edgeLabel;html=1;align=center;verticalAlign=middle;resizable=0;points=[];" parent="E7zGCj6l4MF8pXXS8mJf-77" vertex="1" connectable="0">
          <mxGeometry x="0.4265" y="-2" relative="1" as="geometry">
            <mxPoint x="-23" y="-9" as="offset" />
          </mxGeometry>
        </mxCell>
        <mxCell id="Zx61vEGzBBReCcO16_2G-0" value="" style="endArrow=none;html=1;rounded=0;strokeWidth=1;fillColor=#dae8fc;strokeColor=#6c8ebf;entryX=0.75;entryY=0;entryDx=0;entryDy=0;exitX=0.25;exitY=1;exitDx=0;exitDy=0;" parent="WIyWlLk6GJQsqaUBKTNV-1" source="coV18CZ96dicYKJdgp45-20" edge="1">
          <mxGeometry width="50" height="50" relative="1" as="geometry">
            <mxPoint x="662.5" y="754" as="sourcePoint" />
            <mxPoint x="140.5" y="840" as="targetPoint" />
            <Array as="points">
              <mxPoint x="663" y="798" />
              <mxPoint x="140" y="798" />
            </Array>
          </mxGeometry>
        </mxCell>
        <mxCell id="Zx61vEGzBBReCcO16_2G-1" value="send" style="edgeLabel;html=1;align=center;verticalAlign=middle;resizable=0;points=[];labelBackgroundColor=none;" parent="Zx61vEGzBBReCcO16_2G-0" vertex="1" connectable="0">
          <mxGeometry x="0.4265" y="-2" relative="1" as="geometry">
            <mxPoint x="242" y="-3" as="offset" />
          </mxGeometry>
        </mxCell>
        <mxCell id="Zx61vEGzBBReCcO16_2G-4" value="" style="endArrow=none;html=1;rounded=0;strokeWidth=1;fillColor=#dae8fc;strokeColor=#6c8ebf;entryX=0.75;entryY=0;entryDx=0;entryDy=0;exitX=0.92;exitY=0.98;exitDx=0;exitDy=0;exitPerimeter=0;" parent="WIyWlLk6GJQsqaUBKTNV-1" source="coV18CZ96dicYKJdgp45-52" target="ezx2IVxBo0MTf1jBkaTU-33" edge="1">
          <mxGeometry width="50" height="50" relative="1" as="geometry">
            <mxPoint x="391" y="763" as="sourcePoint" />
            <mxPoint x="391" y="851" as="targetPoint" />
            <Array as="points">
              <mxPoint x="439" y="624" />
              <mxPoint x="479" y="624" />
              <mxPoint x="479" y="777" />
              <mxPoint x="442" y="777" />
            </Array>
          </mxGeometry>
        </mxCell>
        <mxCell id="Zx61vEGzBBReCcO16_2G-5" value="has" style="edgeLabel;html=1;align=center;verticalAlign=middle;resizable=0;points=[];" parent="Zx61vEGzBBReCcO16_2G-4" vertex="1" connectable="0">
          <mxGeometry x="0.4265" y="-2" relative="1" as="geometry">
            <mxPoint x="17" y="-4" as="offset" />
          </mxGeometry>
        </mxCell>
        <mxCell id="ZOrsoItBxFCYiApX_Gnv-0" value="Bed" style="swimlane;fontStyle=1;align=center;verticalAlign=top;childLayout=stackLayout;horizontal=1;startSize=26;horizontalStack=0;resizeParent=1;resizeParentMax=0;resizeLast=0;collapsible=1;marginBottom=0;strokeWidth=1;spacingTop=0;fontSize=12;strokeColor=#6c8ebf;fillColor=#dae8fc;" parent="WIyWlLk6GJQsqaUBKTNV-1" vertex="1">
          <mxGeometry x="384" y="21" width="110" height="119" as="geometry" />
        </mxCell>
        <mxCell id="ZOrsoItBxFCYiApX_Gnv-1" value=" roomNumber&#xa; bulidingID&#xa; bedNumber" style="text;strokeColor=#6C8EBF;fillColor=none;align=left;verticalAlign=top;spacingLeft=4;spacingRight=4;overflow=hidden;rotatable=0;points=[[0,0.5],[1,0.5]];portConstraint=eastwest;strokeWidth=1;spacingTop=0;fontSize=12;" parent="ZOrsoItBxFCYiApX_Gnv-0" vertex="1">
          <mxGeometry y="26" width="110" height="55" as="geometry" />
        </mxCell>
        <mxCell id="IT7af8er3wbHc-K179dS-1" value="getter()&#xa;setter()&#xa;" style="text;strokeColor=#6C8EBF;fillColor=none;align=left;verticalAlign=top;spacingLeft=4;spacingRight=4;overflow=hidden;rotatable=0;points=[[0,0.5],[1,0.5]];portConstraint=eastwest;strokeWidth=1;spacingTop=0;fontSize=12;" parent="ZOrsoItBxFCYiApX_Gnv-0" vertex="1">
          <mxGeometry y="81" width="110" height="38" as="geometry" />
        </mxCell>
        <mxCell id="ZOrsoItBxFCYiApX_Gnv-3" value="" style="endArrow=none;html=1;rounded=0;strokeWidth=1;fillColor=#dae8fc;strokeColor=#6c8ebf;" parent="WIyWlLk6GJQsqaUBKTNV-1" edge="1">
          <mxGeometry width="50" height="50" relative="1" as="geometry">
            <mxPoint x="500" y="423" as="sourcePoint" />
            <mxPoint x="435" y="140" as="targetPoint" />
            <Array as="points">
              <mxPoint x="474" y="423" />
              <mxPoint x="474" y="374" />
              <mxPoint x="474" y="183" />
              <mxPoint x="435" y="183" />
            </Array>
          </mxGeometry>
        </mxCell>
        <mxCell id="ZOrsoItBxFCYiApX_Gnv-4" value="allocate" style="edgeLabel;html=1;align=center;verticalAlign=middle;resizable=0;points=[];" parent="ZOrsoItBxFCYiApX_Gnv-3" vertex="1" connectable="0">
          <mxGeometry x="0.4265" y="-2" relative="1" as="geometry">
            <mxPoint x="-28" y="-10" as="offset" />
          </mxGeometry>
        </mxCell>
        <mxCell id="ZOrsoItBxFCYiApX_Gnv-7" value="" style="endArrow=none;html=1;rounded=0;strokeWidth=1;fillColor=#dae8fc;strokeColor=#6c8ebf;" parent="WIyWlLk6GJQsqaUBKTNV-1" edge="1">
          <mxGeometry width="50" height="50" relative="1" as="geometry">
            <mxPoint x="399" y="260" as="sourcePoint" />
            <mxPoint x="400" y="139" as="targetPoint" />
          </mxGeometry>
        </mxCell>
        <mxCell id="ZOrsoItBxFCYiApX_Gnv-8" value="reserve" style="edgeLabel;html=1;align=center;verticalAlign=middle;resizable=0;points=[];" parent="ZOrsoItBxFCYiApX_Gnv-7" vertex="1" connectable="0">
          <mxGeometry x="0.4265" y="-2" relative="1" as="geometry">
            <mxPoint x="18" y="37" as="offset" />
          </mxGeometry>
        </mxCell>
        <mxCell id="Wn-eCLg_XqfVdrKsII8J-41" style="edgeStyle=none;rounded=0;orthogonalLoop=1;jettySize=auto;html=1;fontSize=11;startArrow=none;startFill=0;endArrow=none;endFill=0;strokeWidth=1;fillColor=#f8cecc;strokeColor=#b85450;" parent="WIyWlLk6GJQsqaUBKTNV-1" edge="1">
          <mxGeometry relative="1" as="geometry">
            <mxPoint x="624" y="602" as="targetPoint" />
            <mxPoint x="571" y="839" as="sourcePoint" />
            <Array as="points">
              <mxPoint x="571" y="787" />
              <mxPoint x="624" y="787" />
            </Array>
          </mxGeometry>
        </mxCell>
        <mxCell id="Wn-eCLg_XqfVdrKsII8J-43" value="" style="endArrow=none;html=1;rounded=0;fontSize=11;strokeWidth=1;fillColor=#f8cecc;strokeColor=#b85450;" parent="WIyWlLk6GJQsqaUBKTNV-1" edge="1">
          <mxGeometry width="50" height="50" relative="1" as="geometry">
            <mxPoint x="610" y="360" as="sourcePoint" />
            <mxPoint x="450" y="360" as="targetPoint" />
          </mxGeometry>
        </mxCell>
        <mxCell id="1MYuHU7_BzHEo2dUdFYI-0" value="Admin" style="swimlane;fontStyle=1;align=center;verticalAlign=top;childLayout=stackLayout;horizontal=1;startSize=26;horizontalStack=0;resizeParent=1;resizeParentMax=0;resizeLast=0;collapsible=1;marginBottom=0;strokeWidth=1;spacingTop=0;fontSize=12;strokeColor=#6c8ebf;fillColor=#dae8fc;" parent="WIyWlLk6GJQsqaUBKTNV-1" vertex="1">
          <mxGeometry x="529.29" y="203" width="110" height="97" as="geometry" />
        </mxCell>
        <mxCell id="1MYuHU7_BzHEo2dUdFYI-1" value="" style="text;strokeColor=#6C8EBF;fillColor=none;align=left;verticalAlign=top;spacingLeft=4;spacingRight=4;overflow=hidden;rotatable=0;points=[[0,0.5],[1,0.5]];portConstraint=eastwest;strokeWidth=1;spacingTop=0;fontSize=12;" parent="1MYuHU7_BzHEo2dUdFYI-0" vertex="1">
          <mxGeometry y="26" width="110" height="20" as="geometry" />
        </mxCell>
        <mxCell id="1MYuHU7_BzHEo2dUdFYI-2" value="+ addUser()&#xa;+ updateUser()&#xa;+ deactivateUser()&#xa;&#xa;" style="text;strokeColor=#6C8EBF;fillColor=none;align=left;verticalAlign=top;spacingLeft=4;spacingRight=4;overflow=hidden;rotatable=0;points=[[0,0.5],[1,0.5]];portConstraint=eastwest;strokeWidth=1;spacingTop=0;fontSize=12;" parent="1MYuHU7_BzHEo2dUdFYI-0" vertex="1">
          <mxGeometry y="46" width="110" height="51" as="geometry" />
        </mxCell>
        <mxCell id="1MYuHU7_BzHEo2dUdFYI-3" value="" style="endArrow=none;html=1;rounded=0;strokeWidth=1;fillColor=#dae8fc;strokeColor=#6c8ebf;exitX=-0.012;exitY=0.712;exitDx=0;exitDy=0;exitPerimeter=0;entryX=0.5;entryY=0;entryDx=0;entryDy=0;" parent="WIyWlLk6GJQsqaUBKTNV-1" edge="1">
          <mxGeometry width="50" height="50" relative="1" as="geometry">
            <mxPoint x="651.0799999999999" y="182.99199999999996" as="sourcePoint" />
            <mxPoint x="582.29" y="203" as="targetPoint" />
            <Array as="points">
              <mxPoint x="582" y="183" />
            </Array>
          </mxGeometry>
        </mxCell>
        <mxCell id="1MYuHU7_BzHEo2dUdFYI-4" value="manage" style="edgeLabel;html=1;align=center;verticalAlign=middle;resizable=0;points=[];" parent="1MYuHU7_BzHEo2dUdFYI-3" vertex="1" connectable="0">
          <mxGeometry x="0.4265" y="-2" relative="1" as="geometry">
            <mxPoint x="18" y="-7" as="offset" />
          </mxGeometry>
        </mxCell>
        <mxCell id="ZUAv4uaIIxq4s-usDBdT-0" value="0&lt;b&gt;..*&lt;/b&gt;" style="edgeLabel;html=1;align=center;verticalAlign=middle;resizable=0;points=[];fontSize=11;labelBackgroundColor=none;" vertex="1" connectable="0" parent="WIyWlLk6GJQsqaUBKTNV-1">
          <mxGeometry x="196" y="155" as="geometry">
            <mxPoint x="-2" y="-3" as="offset" />
          </mxGeometry>
        </mxCell>
        <mxCell id="ZUAv4uaIIxq4s-usDBdT-1" value="&lt;b&gt;1&lt;/b&gt;" style="edgeLabel;html=1;align=center;verticalAlign=middle;resizable=0;points=[];fontSize=11;labelBackgroundColor=none;" vertex="1" connectable="0" parent="WIyWlLk6GJQsqaUBKTNV-1">
          <mxGeometry x="303.1428571428571" y="269" as="geometry" />
        </mxCell>
        <mxCell id="ZUAv4uaIIxq4s-usDBdT-2" value="&lt;b&gt;1&lt;/b&gt;" style="edgeLabel;html=1;align=center;verticalAlign=middle;resizable=0;points=[];fontSize=11;labelBackgroundColor=none;" vertex="1" connectable="0" parent="WIyWlLk6GJQsqaUBKTNV-1">
          <mxGeometry x="325.1428571428571" y="253" as="geometry" />
        </mxCell>
        <mxCell id="ZUAv4uaIIxq4s-usDBdT-3" value="0&lt;font style=&quot;font-size: 11px;&quot;&gt;&lt;b&gt;..8&lt;/b&gt;&lt;/font&gt;" style="edgeLabel;html=1;align=center;verticalAlign=middle;resizable=0;points=[];" vertex="1" connectable="0" parent="WIyWlLk6GJQsqaUBKTNV-1">
          <mxGeometry x="329.89812088183044" y="201.28512845970573" as="geometry" />
        </mxCell>
        <mxCell id="ZUAv4uaIIxq4s-usDBdT-4" value="&lt;b&gt;1..*&lt;/b&gt;" style="edgeLabel;html=1;align=center;verticalAlign=middle;resizable=0;points=[];fontSize=11;" vertex="1" connectable="0" parent="WIyWlLk6GJQsqaUBKTNV-1">
          <mxGeometry x="378.0686270154921" y="200.92986103796272" as="geometry" />
        </mxCell>
        <mxCell id="ZUAv4uaIIxq4s-usDBdT-5" value="&lt;b&gt;0..&lt;font style=&quot;font-size: 11px;&quot;&gt;1&lt;/font&gt;&lt;/b&gt;" style="edgeLabel;html=1;align=center;verticalAlign=middle;resizable=0;points=[];" vertex="1" connectable="0" parent="WIyWlLk6GJQsqaUBKTNV-1">
          <mxGeometry x="411.02821989305176" y="147.8702918542877" as="geometry" />
        </mxCell>
        <mxCell id="ZUAv4uaIIxq4s-usDBdT-6" value="&lt;b&gt;0..*&lt;/b&gt;" style="edgeLabel;html=1;align=center;verticalAlign=middle;resizable=0;points=[];" vertex="1" connectable="0" parent="WIyWlLk6GJQsqaUBKTNV-1">
          <mxGeometry x="447.02821989305176" y="146.8702918542877" as="geometry" />
        </mxCell>
        <mxCell id="ZUAv4uaIIxq4s-usDBdT-7" value="&lt;b&gt;1&lt;/b&gt;" style="edgeLabel;html=1;align=center;verticalAlign=middle;resizable=0;points=[];fontSize=11;labelBackgroundColor=none;" vertex="1" connectable="0" parent="WIyWlLk6GJQsqaUBKTNV-1">
          <mxGeometry x="393.1428571428571" y="253" as="geometry" />
        </mxCell>
        <mxCell id="ZUAv4uaIIxq4s-usDBdT-8" value="&lt;b&gt;1&lt;/b&gt;" style="edgeLabel;html=1;align=center;verticalAlign=middle;resizable=0;points=[];fontSize=11;labelBackgroundColor=none;" vertex="1" connectable="0" parent="WIyWlLk6GJQsqaUBKTNV-1">
          <mxGeometry x="454.1428571428571" y="313" as="geometry" />
        </mxCell>
        <mxCell id="ZUAv4uaIIxq4s-usDBdT-9" value="&lt;b&gt;1&lt;/b&gt;" style="edgeLabel;html=1;align=center;verticalAlign=middle;resizable=0;points=[];fontSize=11;labelBackgroundColor=none;" vertex="1" connectable="0" parent="WIyWlLk6GJQsqaUBKTNV-1">
          <mxGeometry x="494.1428571428571" y="158" as="geometry" />
        </mxCell>
        <mxCell id="ZUAv4uaIIxq4s-usDBdT-10" value="&lt;b&gt;0..*&lt;/b&gt;" style="edgeLabel;html=1;align=center;verticalAlign=middle;resizable=0;points=[];" vertex="1" connectable="0" parent="WIyWlLk6GJQsqaUBKTNV-1">
          <mxGeometry x="522.0282198930518" y="167.8702918542877" as="geometry" />
        </mxCell>
        <mxCell id="ZUAv4uaIIxq4s-usDBdT-11" value="&lt;b&gt;1&lt;/b&gt;" style="edgeLabel;html=1;align=center;verticalAlign=middle;resizable=0;points=[];fontSize=11;labelBackgroundColor=none;" vertex="1" connectable="0" parent="WIyWlLk6GJQsqaUBKTNV-1">
          <mxGeometry x="517.1428571428571" y="406" as="geometry" />
        </mxCell>
        <mxCell id="ZUAv4uaIIxq4s-usDBdT-12" value="&lt;b&gt;1&lt;/b&gt;" style="edgeLabel;html=1;align=center;verticalAlign=middle;resizable=0;points=[];fontSize=11;labelBackgroundColor=none;" vertex="1" connectable="0" parent="WIyWlLk6GJQsqaUBKTNV-1">
          <mxGeometry x="494.1428571428571" y="416" as="geometry" />
        </mxCell>
        <mxCell id="ZUAv4uaIIxq4s-usDBdT-13" value="&lt;b&gt;1&lt;/b&gt;" style="edgeLabel;html=1;align=center;verticalAlign=middle;resizable=0;points=[];fontSize=11;labelBackgroundColor=none;" vertex="1" connectable="0" parent="WIyWlLk6GJQsqaUBKTNV-1">
          <mxGeometry x="493.1428571428571" y="438" as="geometry" />
        </mxCell>
        <mxCell id="ZUAv4uaIIxq4s-usDBdT-14" value="&lt;b&gt;1&lt;/b&gt;" style="edgeLabel;html=1;align=center;verticalAlign=middle;resizable=0;points=[];fontSize=11;labelBackgroundColor=none;" vertex="1" connectable="0" parent="WIyWlLk6GJQsqaUBKTNV-1">
          <mxGeometry x="495.1428571428571" y="484" as="geometry" />
        </mxCell>
        <mxCell id="ZUAv4uaIIxq4s-usDBdT-15" value="&lt;b&gt;1..*&lt;/b&gt;" style="edgeLabel;html=1;align=center;verticalAlign=middle;resizable=0;points=[];fontSize=11;" vertex="1" connectable="0" parent="WIyWlLk6GJQsqaUBKTNV-1">
          <mxGeometry x="459.85937368367547" y="484.72092273083706" as="geometry" />
        </mxCell>
        <mxCell id="ZUAv4uaIIxq4s-usDBdT-16" value="&lt;b&gt;1&lt;/b&gt;" style="edgeLabel;html=1;align=center;verticalAlign=middle;resizable=0;points=[];fontSize=11;labelBackgroundColor=none;" vertex="1" connectable="0" parent="WIyWlLk6GJQsqaUBKTNV-1">
          <mxGeometry x="576.1428571428571" y="196" as="geometry" />
        </mxCell>
        <mxCell id="ZUAv4uaIIxq4s-usDBdT-17" value="&lt;b&gt;0..*&lt;/b&gt;" style="edgeLabel;html=1;align=center;verticalAlign=middle;resizable=0;points=[];" vertex="1" connectable="0" parent="WIyWlLk6GJQsqaUBKTNV-1">
          <mxGeometry x="643.0282198930518" y="174.8702918542877" as="geometry" />
        </mxCell>
        <mxCell id="ZUAv4uaIIxq4s-usDBdT-18" value="&lt;b&gt;1&lt;/b&gt;" style="edgeLabel;html=1;align=center;verticalAlign=middle;resizable=0;points=[];fontSize=11;labelBackgroundColor=none;" vertex="1" connectable="0" parent="WIyWlLk6GJQsqaUBKTNV-1">
          <mxGeometry x="525.1428571428571" y="524" as="geometry" />
        </mxCell>
        <mxCell id="ZUAv4uaIIxq4s-usDBdT-19" value="&lt;b&gt;1&lt;/b&gt;" style="edgeLabel;html=1;align=center;verticalAlign=middle;resizable=0;points=[];fontSize=11;labelBackgroundColor=none;" vertex="1" connectable="0" parent="WIyWlLk6GJQsqaUBKTNV-1">
          <mxGeometry x="545.1428571428571" y="524" as="geometry" />
        </mxCell>
        <mxCell id="ZUAv4uaIIxq4s-usDBdT-20" value="&lt;b&gt;1&lt;/b&gt;" style="edgeLabel;html=1;align=center;verticalAlign=middle;resizable=0;points=[];fontSize=11;labelBackgroundColor=none;" vertex="1" connectable="0" parent="WIyWlLk6GJQsqaUBKTNV-1">
          <mxGeometry x="445.1428571428571" y="527" as="geometry" />
        </mxCell>
        <mxCell id="ZUAv4uaIIxq4s-usDBdT-21" value="&lt;b&gt;1..*&lt;/b&gt;" style="edgeLabel;html=1;align=center;verticalAlign=middle;resizable=0;points=[];fontSize=11;" vertex="1" connectable="0" parent="WIyWlLk6GJQsqaUBKTNV-1">
          <mxGeometry x="403.85937368367547" y="527.7209227308371" as="geometry" />
        </mxCell>
        <mxCell id="ZUAv4uaIIxq4s-usDBdT-22" value="&lt;b&gt;1..*&lt;/b&gt;" style="edgeLabel;html=1;align=center;verticalAlign=middle;resizable=0;points=[];fontSize=11;" vertex="1" connectable="0" parent="WIyWlLk6GJQsqaUBKTNV-1">
          <mxGeometry x="297.85937368367547" y="510.72092273083706" as="geometry" />
        </mxCell>
        <mxCell id="ZUAv4uaIIxq4s-usDBdT-23" value="&lt;b&gt;1..*&lt;/b&gt;" style="edgeLabel;html=1;align=center;verticalAlign=middle;resizable=0;points=[];fontSize=11;" vertex="1" connectable="0" parent="WIyWlLk6GJQsqaUBKTNV-1">
          <mxGeometry x="298.85937368367547" y="484.72092273083706" as="geometry" />
        </mxCell>
        <mxCell id="ZUAv4uaIIxq4s-usDBdT-24" value="&lt;b&gt;1&lt;/b&gt;" style="edgeLabel;html=1;align=center;verticalAlign=middle;resizable=0;points=[];fontSize=11;labelBackgroundColor=none;" vertex="1" connectable="0" parent="WIyWlLk6GJQsqaUBKTNV-1">
          <mxGeometry x="329.1428571428571" y="527" as="geometry" />
        </mxCell>
        <mxCell id="ZUAv4uaIIxq4s-usDBdT-25" value="&lt;b&gt;1&lt;/b&gt;" style="edgeLabel;html=1;align=center;verticalAlign=middle;resizable=0;points=[];fontSize=11;labelBackgroundColor=none;" vertex="1" connectable="0" parent="WIyWlLk6GJQsqaUBKTNV-1">
          <mxGeometry x="301.1428571428571" y="457" as="geometry" />
        </mxCell>
        <mxCell id="ZUAv4uaIIxq4s-usDBdT-26" value="&lt;b&gt;1..*&lt;/b&gt;" style="edgeLabel;html=1;align=center;verticalAlign=middle;resizable=0;points=[];fontSize=11;" vertex="1" connectable="0" parent="WIyWlLk6GJQsqaUBKTNV-1">
          <mxGeometry x="192.85937368367547" y="456.72092273083706" as="geometry" />
        </mxCell>
        <mxCell id="ZUAv4uaIIxq4s-usDBdT-27" value="&lt;b&gt;1..*&lt;/b&gt;" style="edgeLabel;html=1;align=center;verticalAlign=middle;resizable=0;points=[];fontSize=11;" vertex="1" connectable="0" parent="WIyWlLk6GJQsqaUBKTNV-1">
          <mxGeometry x="192.85937368367547" y="552.7209227308371" as="geometry" />
        </mxCell>
        <mxCell id="ZUAv4uaIIxq4s-usDBdT-28" value="&lt;b&gt;1&lt;/b&gt;" style="edgeLabel;html=1;align=center;verticalAlign=middle;resizable=0;points=[];fontSize=11;labelBackgroundColor=none;" vertex="1" connectable="0" parent="WIyWlLk6GJQsqaUBKTNV-1">
          <mxGeometry x="303.1428571428571" y="310" as="geometry" />
        </mxCell>
        <mxCell id="ZUAv4uaIIxq4s-usDBdT-30" value="&lt;b&gt;1..*&lt;/b&gt;" style="edgeLabel;html=1;align=center;verticalAlign=middle;resizable=0;points=[];fontSize=11;" vertex="1" connectable="0" parent="WIyWlLk6GJQsqaUBKTNV-1">
          <mxGeometry x="211.74818741030185" y="335.88998648933034" as="geometry" />
        </mxCell>
        <mxCell id="ZUAv4uaIIxq4s-usDBdT-31" value="&lt;b&gt;1..*&lt;/b&gt;" style="edgeLabel;html=1;align=center;verticalAlign=middle;resizable=0;points=[];fontSize=11;" vertex="1" connectable="0" parent="WIyWlLk6GJQsqaUBKTNV-1">
          <mxGeometry x="211.74818741030185" y="309.88998648933034" as="geometry" />
        </mxCell>
        <mxCell id="ZUAv4uaIIxq4s-usDBdT-32" value="&lt;b&gt;1&lt;/b&gt;" style="edgeLabel;html=1;align=center;verticalAlign=middle;resizable=0;points=[];fontSize=11;labelBackgroundColor=none;" vertex="1" connectable="0" parent="WIyWlLk6GJQsqaUBKTNV-1">
          <mxGeometry x="107.14285714285711" y="632" as="geometry" />
        </mxCell>
        <mxCell id="ZUAv4uaIIxq4s-usDBdT-33" value="&lt;b&gt;1&lt;/b&gt;" style="edgeLabel;html=1;align=center;verticalAlign=middle;resizable=0;points=[];fontSize=11;labelBackgroundColor=none;" vertex="1" connectable="0" parent="WIyWlLk6GJQsqaUBKTNV-1">
          <mxGeometry x="263.1428571428571" y="633" as="geometry" />
        </mxCell>
        <mxCell id="ZUAv4uaIIxq4s-usDBdT-34" value="&lt;b&gt;1&lt;/b&gt;" style="edgeLabel;html=1;align=center;verticalAlign=middle;resizable=0;points=[];fontSize=11;labelBackgroundColor=none;" vertex="1" connectable="0" parent="WIyWlLk6GJQsqaUBKTNV-1">
          <mxGeometry x="263.1428571428571" y="768" as="geometry" />
        </mxCell>
        <mxCell id="ZUAv4uaIIxq4s-usDBdT-35" value="&lt;b&gt;1&lt;/b&gt;" style="edgeLabel;html=1;align=center;verticalAlign=middle;resizable=0;points=[];fontSize=11;labelBackgroundColor=none;" vertex="1" connectable="0" parent="WIyWlLk6GJQsqaUBKTNV-1">
          <mxGeometry x="183.1428571428571" y="765" as="geometry" />
        </mxCell>
        <mxCell id="ZUAv4uaIIxq4s-usDBdT-36" value="&lt;b&gt;1&lt;/b&gt;" style="edgeLabel;html=1;align=center;verticalAlign=middle;resizable=0;points=[];fontSize=11;labelBackgroundColor=none;" vertex="1" connectable="0" parent="WIyWlLk6GJQsqaUBKTNV-1">
          <mxGeometry x="387.1428571428571" y="761" as="geometry" />
        </mxCell>
        <mxCell id="ZUAv4uaIIxq4s-usDBdT-37" value="&lt;b&gt;1&lt;/b&gt;" style="edgeLabel;html=1;align=center;verticalAlign=middle;resizable=0;points=[];fontSize=11;labelBackgroundColor=none;" vertex="1" connectable="0" parent="WIyWlLk6GJQsqaUBKTNV-1">
          <mxGeometry x="555.1428571428571" y="745" as="geometry" />
        </mxCell>
        <mxCell id="ZUAv4uaIIxq4s-usDBdT-38" value="&lt;b&gt;1..*&lt;/b&gt;" style="edgeLabel;html=1;align=center;verticalAlign=middle;resizable=0;points=[];fontSize=11;" vertex="1" connectable="0" parent="WIyWlLk6GJQsqaUBKTNV-1">
          <mxGeometry x="258.99780442479846" y="831.572900631641" as="geometry" />
        </mxCell>
        <mxCell id="ZUAv4uaIIxq4s-usDBdT-39" value="&lt;b&gt;1..*&lt;/b&gt;" style="edgeLabel;html=1;align=center;verticalAlign=middle;resizable=0;points=[];fontSize=11;" vertex="1" connectable="0" parent="WIyWlLk6GJQsqaUBKTNV-1">
          <mxGeometry x="298.99780442479846" y="831.572900631641" as="geometry" />
        </mxCell>
        <mxCell id="ZUAv4uaIIxq4s-usDBdT-40" value="&lt;b&gt;1..*&lt;/b&gt;" style="edgeLabel;html=1;align=center;verticalAlign=middle;resizable=0;points=[];fontSize=11;" vertex="1" connectable="0" parent="WIyWlLk6GJQsqaUBKTNV-1">
          <mxGeometry x="390.99780442479846" y="831.572900631641" as="geometry" />
        </mxCell>
        <mxCell id="ZUAv4uaIIxq4s-usDBdT-41" value="&lt;font style=&quot;font-size: 12px;&quot;&gt;&lt;b&gt;0..*&lt;/b&gt;&lt;/font&gt;" style="edgeLabel;html=1;align=center;verticalAlign=middle;resizable=0;points=[];fontSize=11;" vertex="1" connectable="0" parent="WIyWlLk6GJQsqaUBKTNV-1">
          <mxGeometry x="455" y="831.7951810672419" as="geometry" />
        </mxCell>
        <mxCell id="ZUAv4uaIIxq4s-usDBdT-42" value="&lt;b&gt;1&lt;/b&gt;" style="edgeLabel;html=1;align=center;verticalAlign=middle;resizable=0;points=[];fontSize=11;labelBackgroundColor=none;" vertex="1" connectable="0" parent="WIyWlLk6GJQsqaUBKTNV-1">
          <mxGeometry x="588.1428571428571" y="833" as="geometry" />
        </mxCell>
        <mxCell id="ZUAv4uaIIxq4s-usDBdT-43" value="&lt;b&gt;1&lt;/b&gt;..*" style="edgeLabel;html=1;align=center;verticalAlign=middle;resizable=0;points=[];fontSize=11;" vertex="1" connectable="0" parent="WIyWlLk6GJQsqaUBKTNV-1">
          <mxGeometry x="682.7142857142857" y="832" as="geometry" />
        </mxCell>
        <mxCell id="ZUAv4uaIIxq4s-usDBdT-44" value="&lt;b&gt;1&lt;/b&gt;" style="edgeLabel;html=1;align=center;verticalAlign=middle;resizable=0;points=[];fontSize=11;labelBackgroundColor=none;" vertex="1" connectable="0" parent="WIyWlLk6GJQsqaUBKTNV-1">
          <mxGeometry x="667.1428571428571" y="767" as="geometry" />
        </mxCell>
        <mxCell id="ZUAv4uaIIxq4s-usDBdT-45" value="&lt;b&gt;1&lt;/b&gt;" style="edgeLabel;html=1;align=center;verticalAlign=middle;resizable=0;points=[];fontSize=11;labelBackgroundColor=none;" vertex="1" connectable="0" parent="WIyWlLk6GJQsqaUBKTNV-1">
          <mxGeometry x="699.1428571428571" y="767" as="geometry" />
        </mxCell>
        <mxCell id="ZUAv4uaIIxq4s-usDBdT-47" value="&lt;b&gt;1&lt;/b&gt;..*" style="edgeLabel;html=1;align=center;verticalAlign=middle;resizable=0;points=[];fontSize=11;" vertex="1" connectable="0" parent="WIyWlLk6GJQsqaUBKTNV-1">
          <mxGeometry x="716.7142857142857" y="832" as="geometry" />
        </mxCell>
        <mxCell id="ZUAv4uaIIxq4s-usDBdT-48" value="&lt;b&gt;1..*&lt;/b&gt;" style="edgeLabel;html=1;align=center;verticalAlign=middle;resizable=0;points=[];fontSize=11;" vertex="1" connectable="0" parent="WIyWlLk6GJQsqaUBKTNV-1">
          <mxGeometry x="429.99780442479846" y="1020.572900631641" as="geometry" />
        </mxCell>
        <mxCell id="ZUAv4uaIIxq4s-usDBdT-49" value="&lt;b&gt;1..*&lt;/b&gt;" style="edgeLabel;html=1;align=center;verticalAlign=middle;resizable=0;points=[];fontSize=11;" vertex="1" connectable="0" parent="WIyWlLk6GJQsqaUBKTNV-1">
          <mxGeometry x="228.99780442479846" y="1020.572900631641" as="geometry" />
        </mxCell>
        <mxCell id="ZUAv4uaIIxq4s-usDBdT-50" value="&lt;b&gt;1..*&lt;/b&gt;" style="edgeLabel;html=1;align=center;verticalAlign=middle;resizable=0;points=[];fontSize=11;" vertex="1" connectable="0" parent="WIyWlLk6GJQsqaUBKTNV-1">
          <mxGeometry x="69.99780442479846" y="1020.572900631641" as="geometry" />
        </mxCell>
        <mxCell id="ZUAv4uaIIxq4s-usDBdT-51" value="&lt;b&gt;1..*&lt;/b&gt;" style="edgeLabel;html=1;align=center;verticalAlign=middle;resizable=0;points=[];fontSize=11;" vertex="1" connectable="0" parent="WIyWlLk6GJQsqaUBKTNV-1">
          <mxGeometry x="92.99780442479846" y="830.572900631641" as="geometry" />
        </mxCell>
        <mxCell id="ZUAv4uaIIxq4s-usDBdT-52" value="&lt;b&gt;1..*&lt;/b&gt;" style="edgeLabel;html=1;align=center;verticalAlign=middle;resizable=0;points=[];fontSize=11;" vertex="1" connectable="0" parent="WIyWlLk6GJQsqaUBKTNV-1">
          <mxGeometry x="120.99780442479846" y="831.572900631641" as="geometry" />
        </mxCell>
        <mxCell id="ZUAv4uaIIxq4s-usDBdT-53" value="&lt;b&gt;1..*&lt;/b&gt;" style="edgeLabel;html=1;align=center;verticalAlign=middle;resizable=0;points=[];fontSize=11;" vertex="1" connectable="0" parent="WIyWlLk6GJQsqaUBKTNV-1">
          <mxGeometry x="150.99780442479846" y="831.572900631641" as="geometry" />
        </mxCell>
        <mxCell id="ZUAv4uaIIxq4s-usDBdT-54" value="&lt;b&gt;1&lt;/b&gt;" style="edgeLabel;html=1;align=center;verticalAlign=middle;resizable=0;points=[];fontSize=11;labelBackgroundColor=none;" vertex="1" connectable="0" parent="WIyWlLk6GJQsqaUBKTNV-1">
          <mxGeometry x="757.1428571428571" y="532" as="geometry" />
        </mxCell>
        <mxCell id="ZUAv4uaIIxq4s-usDBdT-55" value="&lt;b&gt;1&lt;/b&gt;" style="edgeLabel;html=1;align=center;verticalAlign=middle;resizable=0;points=[];fontSize=11;labelBackgroundColor=none;" vertex="1" connectable="0" parent="WIyWlLk6GJQsqaUBKTNV-1">
          <mxGeometry x="782.1428571428571" y="532" as="geometry" />
        </mxCell>
        <mxCell id="ZUAv4uaIIxq4s-usDBdT-56" value="&lt;b&gt;1&lt;/b&gt;" style="edgeLabel;html=1;align=center;verticalAlign=middle;resizable=0;points=[];fontSize=11;labelBackgroundColor=none;" vertex="1" connectable="0" parent="WIyWlLk6GJQsqaUBKTNV-1">
          <mxGeometry x="792.1428571428571" y="532" as="geometry" />
        </mxCell>
        <mxCell id="ZUAv4uaIIxq4s-usDBdT-57" value="&lt;b&gt;1&lt;/b&gt;" style="edgeLabel;html=1;align=center;verticalAlign=middle;resizable=0;points=[];fontSize=11;labelBackgroundColor=none;" vertex="1" connectable="0" parent="WIyWlLk6GJQsqaUBKTNV-1">
          <mxGeometry x="807.1428571428571" y="532" as="geometry" />
        </mxCell>
      </root>
    </mxGraphModel>
  </diagram>
  <diagram id="uoQHESE2pKwCt4VHYcpt" name="Page-2">
    <mxGraphModel dx="1080" dy="627" grid="1" gridSize="10" guides="1" tooltips="1" connect="1" arrows="1" fold="1" page="1" pageScale="1" pageWidth="850" pageHeight="1100" math="0" shadow="0">
      <root>
        <mxCell id="0" />
        <mxCell id="1" parent="0" />
        <mxCell id="3OXmQlTdd_s43SyNHVO--5" value="" style="rounded=0;orthogonalLoop=1;jettySize=auto;html=1;fillColor=#d5e8d4;strokeColor=#82b366;strokeWidth=2;fontStyle=1;fontSize=14;" edge="1" parent="1" source="3OXmQlTdd_s43SyNHVO--1" target="3OXmQlTdd_s43SyNHVO--4">
          <mxGeometry relative="1" as="geometry" />
        </mxCell>
        <mxCell id="3OXmQlTdd_s43SyNHVO--1" value="ANC Triage" style="rounded=1;whiteSpace=wrap;html=1;fillColor=#dae8fc;strokeColor=#6c8ebf;strokeWidth=2;fontStyle=1;fontSize=14;" vertex="1" parent="1">
          <mxGeometry x="120" y="80" width="120" height="60" as="geometry" />
        </mxCell>
        <mxCell id="3OXmQlTdd_s43SyNHVO--7" value="" style="rounded=0;orthogonalLoop=1;jettySize=auto;html=1;fillColor=#d5e8d4;strokeColor=#82b366;strokeWidth=2;fontStyle=1;fontSize=14;" edge="1" parent="1" source="3OXmQlTdd_s43SyNHVO--4" target="3OXmQlTdd_s43SyNHVO--6">
          <mxGeometry relative="1" as="geometry" />
        </mxCell>
        <mxCell id="3OXmQlTdd_s43SyNHVO--4" value="Registration" style="rounded=1;whiteSpace=wrap;html=1;fillColor=#dae8fc;strokeColor=#6c8ebf;strokeWidth=2;fontStyle=1;fontSize=14;" vertex="1" parent="1">
          <mxGeometry x="350" y="80" width="120" height="60" as="geometry" />
        </mxCell>
        <mxCell id="3OXmQlTdd_s43SyNHVO--9" value="" style="rounded=0;orthogonalLoop=1;jettySize=auto;html=1;fillColor=#d5e8d4;strokeColor=#82b366;strokeWidth=2;fontStyle=1;fontSize=14;" edge="1" parent="1" source="3OXmQlTdd_s43SyNHVO--6" target="3OXmQlTdd_s43SyNHVO--8">
          <mxGeometry relative="1" as="geometry" />
        </mxCell>
        <mxCell id="3OXmQlTdd_s43SyNHVO--6" value="PITC" style="rounded=1;whiteSpace=wrap;html=1;fillColor=#dae8fc;strokeColor=#6c8ebf;strokeWidth=2;fontStyle=1;fontSize=14;" vertex="1" parent="1">
          <mxGeometry x="560" y="80" width="120" height="60" as="geometry" />
        </mxCell>
        <mxCell id="3OXmQlTdd_s43SyNHVO--11" value="" style="rounded=0;orthogonalLoop=1;jettySize=auto;html=1;fillColor=#dae8fc;strokeColor=#6c8ebf;strokeWidth=2;fontStyle=1;fontSize=14;" edge="1" parent="1" source="3OXmQlTdd_s43SyNHVO--8" target="3OXmQlTdd_s43SyNHVO--10">
          <mxGeometry relative="1" as="geometry" />
        </mxCell>
        <mxCell id="3OXmQlTdd_s43SyNHVO--13" value="" style="rounded=0;orthogonalLoop=1;jettySize=auto;html=1;fillColor=#dae8fc;strokeColor=#6c8ebf;strokeWidth=2;fontStyle=1;fontSize=14;entryX=0.942;entryY=0.95;entryDx=0;entryDy=0;entryPerimeter=0;" edge="1" parent="1" source="3OXmQlTdd_s43SyNHVO--8" target="3OXmQlTdd_s43SyNHVO--12">
          <mxGeometry relative="1" as="geometry" />
        </mxCell>
        <mxCell id="3OXmQlTdd_s43SyNHVO--15" value="" style="rounded=0;orthogonalLoop=1;jettySize=auto;html=1;fillColor=#dae8fc;strokeColor=#6c8ebf;strokeWidth=2;fontStyle=1;fontSize=14;entryX=0.951;entryY=0.009;entryDx=0;entryDy=0;entryPerimeter=0;" edge="1" parent="1" source="3OXmQlTdd_s43SyNHVO--8" target="3OXmQlTdd_s43SyNHVO--14">
          <mxGeometry relative="1" as="geometry" />
        </mxCell>
        <mxCell id="3OXmQlTdd_s43SyNHVO--17" value="" style="rounded=0;orthogonalLoop=1;jettySize=auto;html=1;startArrow=none;fillColor=#dae8fc;strokeColor=#6c8ebf;strokeWidth=2;fontStyle=1;fontSize=14;" edge="1" parent="1" source="3OXmQlTdd_s43SyNHVO--8" target="3OXmQlTdd_s43SyNHVO--16">
          <mxGeometry relative="1" as="geometry" />
        </mxCell>
        <mxCell id="3OXmQlTdd_s43SyNHVO--19" value="" style="rounded=0;orthogonalLoop=1;jettySize=auto;html=1;fillColor=#d5e8d4;strokeColor=#82b366;strokeWidth=2;fontStyle=1;fontSize=14;" edge="1" parent="1" source="3OXmQlTdd_s43SyNHVO--8" target="3OXmQlTdd_s43SyNHVO--18">
          <mxGeometry relative="1" as="geometry" />
        </mxCell>
        <mxCell id="3OXmQlTdd_s43SyNHVO--8" value="ANC" style="rounded=1;whiteSpace=wrap;html=1;fillColor=#a0522d;strokeColor=#6D1F00;fontColor=#ffffff;strokeWidth=2;fontStyle=1;fontSize=14;" vertex="1" parent="1">
          <mxGeometry x="560" y="310" width="120" height="60" as="geometry" />
        </mxCell>
        <mxCell id="3OXmQlTdd_s43SyNHVO--10" value="Radiology " style="rounded=1;whiteSpace=wrap;html=1;fillColor=#dae8fc;strokeColor=#6c8ebf;strokeWidth=2;fontStyle=1;fontSize=14;" vertex="1" parent="1">
          <mxGeometry x="120" y="190" width="120" height="60" as="geometry" />
        </mxCell>
        <mxCell id="3OXmQlTdd_s43SyNHVO--12" value="Gynecology" style="rounded=1;whiteSpace=wrap;html=1;fillColor=#dae8fc;strokeColor=#6c8ebf;strokeWidth=2;fontStyle=1;fontSize=14;" vertex="1" parent="1">
          <mxGeometry x="350" y="190" width="120" height="60" as="geometry" />
        </mxCell>
        <mxCell id="3OXmQlTdd_s43SyNHVO--14" value="Laboratory" style="rounded=1;whiteSpace=wrap;html=1;fillColor=#dae8fc;strokeColor=#6c8ebf;strokeWidth=2;fontStyle=1;fontSize=14;" vertex="1" parent="1">
          <mxGeometry x="350" y="441" width="120" height="60" as="geometry" />
        </mxCell>
        <mxCell id="3OXmQlTdd_s43SyNHVO--16" value="Pharmacy" style="rounded=1;whiteSpace=wrap;html=1;fillColor=#dae8fc;strokeColor=#6c8ebf;strokeWidth=2;fontStyle=1;fontSize=14;" vertex="1" parent="1">
          <mxGeometry x="120" y="441" width="120" height="60" as="geometry" />
        </mxCell>
        <mxCell id="3OXmQlTdd_s43SyNHVO--21" value="" style="rounded=0;orthogonalLoop=1;jettySize=auto;html=1;fillColor=#d5e8d4;strokeColor=#82b366;entryX=0.975;entryY=0.945;entryDx=0;entryDy=0;exitX=0.058;exitY=0.033;exitDx=0;exitDy=0;exitPerimeter=0;strokeWidth=2;fontStyle=1;fontSize=14;entryPerimeter=0;" edge="1" parent="1" source="3OXmQlTdd_s43SyNHVO--18" target="3OXmQlTdd_s43SyNHVO--20">
          <mxGeometry relative="1" as="geometry" />
        </mxCell>
        <mxCell id="3OXmQlTdd_s43SyNHVO--18" value="Delivery Triage" style="rounded=1;whiteSpace=wrap;html=1;fillColor=#dae8fc;strokeColor=#6c8ebf;strokeWidth=2;fontStyle=1;fontSize=14;" vertex="1" parent="1">
          <mxGeometry x="560" y="441" width="120" height="60" as="geometry" />
        </mxCell>
        <mxCell id="3OXmQlTdd_s43SyNHVO--23" value="" style="rounded=0;orthogonalLoop=1;jettySize=auto;html=1;fillColor=#d5e8d4;strokeColor=#82b366;strokeWidth=2;fontStyle=1;fontSize=14;" edge="1" parent="1" source="3OXmQlTdd_s43SyNHVO--20" target="3OXmQlTdd_s43SyNHVO--22">
          <mxGeometry relative="1" as="geometry" />
        </mxCell>
        <mxCell id="3OXmQlTdd_s43SyNHVO--24" style="edgeStyle=none;rounded=0;orthogonalLoop=1;jettySize=auto;html=1;entryX=0.5;entryY=1;entryDx=0;entryDy=0;fillColor=#dae8fc;strokeColor=#6c8ebf;strokeWidth=2;fontStyle=1;fontSize=14;" edge="1" parent="1" source="3OXmQlTdd_s43SyNHVO--20" target="3OXmQlTdd_s43SyNHVO--12">
          <mxGeometry relative="1" as="geometry" />
        </mxCell>
        <mxCell id="3OXmQlTdd_s43SyNHVO--25" style="edgeStyle=none;rounded=0;orthogonalLoop=1;jettySize=auto;html=1;fillColor=#dae8fc;strokeColor=#6c8ebf;strokeWidth=2;fontStyle=1;fontSize=14;" edge="1" parent="1" source="3OXmQlTdd_s43SyNHVO--20" target="3OXmQlTdd_s43SyNHVO--14">
          <mxGeometry relative="1" as="geometry" />
        </mxCell>
        <mxCell id="3OXmQlTdd_s43SyNHVO--26" style="edgeStyle=none;rounded=0;orthogonalLoop=1;jettySize=auto;html=1;entryX=0.963;entryY=0.025;entryDx=0;entryDy=0;fillColor=#dae8fc;strokeColor=#6c8ebf;strokeWidth=2;fontStyle=1;fontSize=14;entryPerimeter=0;" edge="1" parent="1" source="3OXmQlTdd_s43SyNHVO--20" target="3OXmQlTdd_s43SyNHVO--16">
          <mxGeometry relative="1" as="geometry" />
        </mxCell>
        <mxCell id="3OXmQlTdd_s43SyNHVO--27" style="edgeStyle=none;rounded=0;orthogonalLoop=1;jettySize=auto;html=1;fillColor=#dae8fc;strokeColor=#6c8ebf;strokeWidth=2;fontStyle=1;fontSize=14;entryX=0.975;entryY=0.953;entryDx=0;entryDy=0;entryPerimeter=0;" edge="1" parent="1" source="3OXmQlTdd_s43SyNHVO--20" target="3OXmQlTdd_s43SyNHVO--10">
          <mxGeometry relative="1" as="geometry">
            <mxPoint x="240" y="250" as="targetPoint" />
          </mxGeometry>
        </mxCell>
        <mxCell id="3OXmQlTdd_s43SyNHVO--28" style="edgeStyle=none;rounded=0;orthogonalLoop=1;jettySize=auto;html=1;fillColor=#dae8fc;strokeColor=#6c8ebf;strokeWidth=2;fontStyle=1;fontSize=14;entryX=0.006;entryY=0.898;entryDx=0;entryDy=0;entryPerimeter=0;" edge="1" parent="1" source="3OXmQlTdd_s43SyNHVO--22" target="3OXmQlTdd_s43SyNHVO--12">
          <mxGeometry relative="1" as="geometry">
            <mxPoint x="350" y="250" as="targetPoint" />
          </mxGeometry>
        </mxCell>
        <mxCell id="3OXmQlTdd_s43SyNHVO--29" style="edgeStyle=none;rounded=0;orthogonalLoop=1;jettySize=auto;html=1;exitX=0.958;exitY=0.883;exitDx=0;exitDy=0;entryX=0.014;entryY=0.128;entryDx=0;entryDy=0;fillColor=#dae8fc;strokeColor=#6c8ebf;strokeWidth=2;fontStyle=1;fontSize=14;exitPerimeter=0;entryPerimeter=0;" edge="1" parent="1" source="3OXmQlTdd_s43SyNHVO--22" target="3OXmQlTdd_s43SyNHVO--14">
          <mxGeometry relative="1" as="geometry" />
        </mxCell>
        <mxCell id="3OXmQlTdd_s43SyNHVO--30" style="edgeStyle=none;rounded=0;orthogonalLoop=1;jettySize=auto;html=1;fillColor=#dae8fc;strokeColor=#6c8ebf;strokeWidth=2;fontStyle=1;fontSize=14;" edge="1" parent="1" source="3OXmQlTdd_s43SyNHVO--22" target="3OXmQlTdd_s43SyNHVO--16">
          <mxGeometry relative="1" as="geometry" />
        </mxCell>
        <mxCell id="3OXmQlTdd_s43SyNHVO--31" style="edgeStyle=none;rounded=0;orthogonalLoop=1;jettySize=auto;html=1;fillColor=#dae8fc;strokeColor=#6c8ebf;strokeWidth=2;fontStyle=1;fontSize=14;" edge="1" parent="1" source="3OXmQlTdd_s43SyNHVO--22">
          <mxGeometry relative="1" as="geometry">
            <mxPoint x="180" y="250" as="targetPoint" />
          </mxGeometry>
        </mxCell>
        <mxCell id="3OXmQlTdd_s43SyNHVO--22" value="PNC" style="rounded=1;whiteSpace=wrap;html=1;fillColor=#a0522d;strokeColor=#6D1F00;fontColor=#ffffff;strokeWidth=2;fontStyle=1;fontSize=14;" vertex="1" parent="1">
          <mxGeometry x="120" y="310" width="120" height="60" as="geometry" />
        </mxCell>
        <mxCell id="3OXmQlTdd_s43SyNHVO--20" value="Delivery" style="rounded=1;whiteSpace=wrap;html=1;fillColor=#a0522d;strokeColor=#6D1F00;fontColor=#ffffff;strokeWidth=2;fontStyle=1;fontSize=14;" vertex="1" parent="1">
          <mxGeometry x="350" y="310" width="120" height="60" as="geometry" />
        </mxCell>
      </root>
    </mxGraphModel>
  </diagram>
</mxfile>
